<svg width="43" height="43" viewBox="0 0 43 43" fill="none" xmlns="http://www.w3.org/2000/svg">
<path d="M42.5537 1.02516V1.02447C41.8945 0.026007 40.5759 -0.293396 39.5329 0.292705C35.9034 2.29702 26.8439 3.80348 22.9748 4.44726L22.625 4.5052C13.7056 5.99157 6.56964 14.2728 4.44584 25.6019L4.27845 26.4982C3.40076 31.2064 2.4065 36.5427 0.388537 39.5327C0.0510226 40.0277 -0.0736999 40.6375 0.0423529 41.2252C0.153685 41.799 0.491113 42.3041 0.978673 42.6265C1.34263 42.8698 1.77053 42.9997 2.2083 42.9999C2.68668 43.0007 3.15209 42.8438 3.53235 42.5535L4.00738 42.1844C5.44233 41.0614 6.79711 40.0013 11.2027 38.8997C12.1712 38.6579 13.1792 38.4361 14.2178 38.208C19.5762 37.0284 25.6499 35.6915 31.2888 30.6793C36.3762 26.1571 38.457 17.2464 39.834 11.3493C40.1376 9.86586 40.5286 8.40173 41.005 6.96446C41.4645 5.75792 42.0066 4.58443 42.6273 3.45223C43.0695 2.69582 43.0409 1.75332 42.5537 1.02516ZM41.3583 2.72115C40.7039 3.91412 40.1313 5.15019 39.6444 6.42076C39.1366 7.92541 38.7236 9.46036 38.4076 11.0167C37.0728 16.7327 35.0556 25.3716 30.3159 29.5848C24.9625 34.3431 19.0869 35.6364 13.903 36.7773C12.8501 37.0084 11.8287 37.2336 10.8479 37.4791C6.13968 38.6557 4.59674 39.8632 3.10462 41.0306L2.64255 41.3897C2.43946 41.5393 2.17405 41.5751 1.9386 41.4846C1.70314 41.3941 1.53001 41.1897 1.47945 40.9426C1.43997 40.737 1.4846 40.5242 1.60323 40.3518C3.79132 37.11 4.81494 31.615 5.71838 26.7665L5.88508 25.8723C7.89515 15.1541 14.5605 7.33425 22.8653 5.95011L23.2151 5.89217C27.4919 5.18117 36.3919 3.70116 40.241 1.57452C40.3658 1.50542 40.5061 1.46903 40.6487 1.46868C40.9245 1.4686 41.1821 1.60663 41.3348 1.83641C41.5108 2.1026 41.52 2.44586 41.3583 2.72115Z" fill="#E2B9A2"/>
<path d="M16.1424 13.8972C16.1088 13.6955 15.9924 13.517 15.8212 13.4051C15.6509 13.292 15.4406 13.2564 15.2426 13.3071C15.1081 13.34 11.9335 14.1898 9.61949 19.589C8.10514 23.1219 7.61801 27.23 7.22608 30.5305C7.10496 31.8131 6.91345 33.088 6.65242 34.3496C6.59783 34.5683 6.64701 34.8 6.78573 34.9777C6.92444 35.1554 7.13732 35.2594 7.36273 35.2594C7.46977 35.2594 7.57544 35.2359 7.67243 35.1908C7.82119 35.1214 11.3327 33.4354 13.88 28.2579C16.167 23.8415 16.9608 18.8029 16.1424 13.8972ZM8.39484 32.9633C8.49356 32.2801 8.58369 31.5197 8.68094 30.7028C9.06146 27.4961 9.53503 23.5046 10.9657 20.1655C12.3012 17.0503 13.9092 15.6734 14.837 15.1004C15.3478 19.4041 14.5565 23.762 12.5651 27.6113C11.5863 29.6807 10.1622 31.5082 8.39484 32.9633Z" fill="#E2B9A2"/>
<path d="M23.4773 21.3422C18.028 21.3422 13.0958 32.2565 12.5515 33.5011C12.4526 33.7275 12.4745 33.9886 12.6097 34.1954C12.745 34.4021 12.9754 34.5268 13.2225 34.5269C16.4077 34.5269 23.2033 32.1685 26.8649 29.2393C29.0201 27.5146 28.7948 25.6948 28.468 24.7643C27.6159 22.7465 25.6665 21.4098 23.4773 21.3422ZM25.9494 28.0948C22.812 30.6048 17.475 32.5111 14.4164 32.9611C16.1754 29.3437 20.0609 22.8072 23.4773 22.8072C25.0444 22.8751 26.4398 23.8196 27.0853 25.2492C27.438 26.2529 27.0553 27.2106 25.9494 28.0948Z" fill="#E2B9A2"/>
<path d="M32.9323 8.58391C32.7959 8.2894 32.4825 8.11935 32.1612 8.16545C24.624 9.26769 19.3578 15.2685 17.6553 20.378C17.5518 20.6886 17.6669 21.0301 17.9372 21.2147C18.2075 21.3993 18.5675 21.3822 18.8191 21.1728C20.1877 19.9521 21.8567 19.118 23.6546 18.7565C25.668 18.3451 27.5373 17.41 29.0738 16.0455C34.197 11.7756 33.0769 8.89799 32.9323 8.58391ZM28.1354 14.9194C26.7668 16.1401 25.0978 16.9742 23.2999 17.3358C22.1804 17.5721 21.1 17.9662 20.0911 18.506C22.0538 14.9645 25.9989 10.8435 31.6563 9.73697C31.6269 10.5925 31.1355 12.4202 28.1354 14.9194Z" fill="#E2B9A2"/>
<path d="M17.4745 13.2706C17.6495 13.3053 17.8275 13.3226 18.006 13.3221C20.5747 13.3221 23.7635 9.98152 25.5046 7.89429C25.6952 7.66596 25.7288 7.34501 25.5896 7.08218C25.4503 6.81934 25.1661 6.66681 24.8701 6.69608C19.0532 7.27265 16.885 10.5938 16.885 12.5524C16.885 12.9017 17.1318 13.2024 17.4745 13.2706ZM23.0082 8.50374C21.0425 10.5789 19.5189 11.5431 18.5117 11.7913C18.938 10.694 20.2535 9.22263 23.0082 8.50374Z" fill="#E2B9A2"/>
<path d="M33.7307 16.2148C32.4568 16.4558 31.3419 17.2189 30.6563 18.3193C30.0161 19.353 29.5354 21.1534 30.878 23.8645C30.991 24.0925 31.2141 24.2458 31.4675 24.2694C31.4904 24.2715 31.5125 24.2722 31.5347 24.2722C31.7653 24.2725 31.9825 24.1637 32.1205 23.9789C33.5738 21.9153 34.3889 19.4702 34.4646 16.9473C34.4647 16.7527 34.3872 16.566 34.2492 16.4287C34.1087 16.2959 33.924 16.2197 33.7307 16.2148ZM31.672 21.9038C31.3755 21.0552 31.4147 20.1255 31.7815 19.305C32.0471 18.7993 32.4423 18.3732 32.9267 18.0704C32.7357 19.4117 32.3111 20.7091 31.672 21.9038Z" fill="#E2B9A2"/>
</svg>
