<svg width="56" height="51" viewBox="0 0 56 51" fill="none" xmlns="http://www.w3.org/2000/svg">
<path d="M36.75 6.5625C36.1462 6.5625 35.6562 7.0525 35.6562 7.65625C35.6562 8.26 36.1462 8.75 36.75 8.75C37.3537 8.75 37.8437 8.26 37.8437 7.65625C37.8437 7.0525 37.3537 6.5625 36.75 6.5625Z" fill="#E2B9A2"/>
<path d="M47.7075 24.8482C46.4658 20.3947 41.0528 13.403 41.7249 1.15358C41.7414 0.853672 41.6337 0.560109 41.4271 0.341797C41.2206 0.123594 40.9333 0 40.6328 0H15.3672C15.0668 0 14.7794 0.123594 14.5729 0.341797C14.3664 0.56 14.2587 0.853562 14.2751 1.15358C14.944 13.3466 9.54736 20.4099 8.28463 24.8391C6.00143 32.8245 9.72608 43.1386 14.9449 49.8878C15.1521 50.1557 15.4715 50.3125 15.8102 50.3125H40.1909C40.5295 50.3125 40.8489 50.1557 41.0561 49.8879C46.0234 43.466 49.9135 32.7296 47.7075 24.8482ZM13.6108 17.9564C15.6615 12.7622 16.6334 7.46298 16.5049 2.18761H39.4949C39.3665 7.46091 40.3381 12.759 42.3881 17.9539C42.4749 18.174 42.5659 18.3959 42.6601 18.6203C38.16 20.7522 33.1142 21.875 28 21.875C22.8859 21.875 17.8398 20.7522 13.3397 18.6203C13.4328 18.3981 13.5235 18.1772 13.6108 17.9564ZM26.9063 48.125H16.3523C10.7187 40.5939 9.03745 32.0477 10.1149 26.5765C16.0379 28.8505 21.6494 33.7499 26.9063 37.7314V48.125ZM10.7058 24.461C11.0743 23.4417 11.5333 22.4924 12.0461 21.4337C12.1758 21.1662 12.3075 20.8937 12.4407 20.6146C17.223 22.8729 22.5773 24.0625 28 24.0625C33.4226 24.0625 38.7768 22.8729 43.559 20.6147C43.6917 20.8929 43.823 21.1645 43.952 21.4309C44.4655 22.4913 44.9248 23.442 45.2895 24.4625C39.0377 26.8157 33.1463 31.9001 28 35.8166C22.8316 31.8837 16.9592 26.8135 10.7058 24.461ZM39.6469 48.125H29.0938V37.7314C34.388 33.7211 39.9648 28.8544 45.8676 26.583C47.1682 33.4952 43.7769 42.5435 39.6469 48.125Z" fill="#E2B9A2"/>
<path d="M39.4235 16.1806C38.9451 14.7199 38.5433 13.2402 38.2293 11.7823C38.1021 11.1919 37.5201 10.8159 36.9298 10.9434C36.3393 11.0706 35.9637 11.6524 36.0909 12.2429C36.4209 13.7749 36.8428 15.3288 37.3446 16.8615C37.5323 17.4346 38.1492 17.7488 38.7244 17.5605C39.2986 17.3725 39.6115 16.7547 39.4235 16.1806Z" fill="#E2B9A2"/>
<path d="M54.9062 8.75H48.1405L50.6483 6.24214C51.0755 5.81503 51.0755 5.12247 50.6483 4.69525C50.2212 4.26803 49.5287 4.26814 49.1015 4.69525L44.7265 9.07025C44.2994 9.49736 44.2994 10.1899 44.7265 10.6171L49.1015 14.9921C49.5286 15.4192 50.2211 15.4192 50.6483 14.9921C51.0755 14.565 51.0755 13.8725 50.6483 13.4452L48.1405 10.9375H54.9062C55.5103 10.9375 56 10.4478 56 9.84375C56 9.23967 55.5103 8.75 54.9062 8.75Z" fill="#E2B9A2"/>
<path d="M11.2735 9.07033L6.8985 4.69533C6.47139 4.26822 5.77883 4.26822 5.35161 4.69533C4.92439 5.12244 4.9245 5.815 5.35161 6.24222L7.85947 8.74997H1.09375C0.489672 8.74997 0 9.23964 0 9.84372C0 10.4478 0.489672 10.9375 1.09375 10.9375H7.85947L5.35161 13.4453C4.9245 13.8724 4.9245 14.565 5.35161 14.9922C5.77872 15.4193 6.47128 15.4193 6.8985 14.9922L11.2735 10.6172C11.7006 10.1901 11.7006 9.49755 11.2735 9.07033Z" fill="#E2B9A2"/>
</svg>
