<svg width="47" height="47" viewBox="0 0 47 47" fill="none" xmlns="http://www.w3.org/2000/svg">
<path d="M7.9201 11.9995L4.92905 20.3755C4.77767 20.7982 4.70032 21.2439 4.70032 21.6928V33.5415L0.0500694 45.9416C-0.101799 46.3467 0.103434 46.7982 0.508514 46.9502C0.596541 46.9832 0.689758 47.0001 0.783659 47H12.5336C12.893 46.9999 13.2061 46.7553 13.2933 46.4067L15.0745 39.2752V39.2803C15.4424 43.6089 19.1365 47 23.4846 47C27.8487 47 31.5431 43.5902 31.8947 39.2363L31.8994 39.1767L33.7069 46.4067C33.7941 46.7554 34.1075 47.0001 34.4669 47H46.2169C46.6495 47.0001 47.0003 46.6495 47.0003 46.2168C47.0003 46.1228 46.9835 46.0296 46.9505 45.9416L42.3002 33.5415V21.6928C42.3002 21.2439 42.2229 20.7982 42.0715 20.3755L39.0805 11.9999C38.522 10.4421 37.0465 9.40214 35.3917 9.40008H34.2792L34.4669 7.05008V3.13343C34.4677 1.40373 33.0662 0.000882992 31.3365 9.96598e-05C30.4922 -0.000292006 29.6835 0.340261 29.0938 0.944504C28.1033 -0.197985 26.3744 -0.321262 25.232 0.669065C25.1748 0.718611 25.1197 0.770506 25.0668 0.824654C24.0088 -0.257519 22.2738 -0.277004 21.1916 0.781081C20.8735 1.09216 20.6358 1.47609 20.4992 1.89958C19.1691 1.17706 17.5051 1.66948 16.7825 2.99957C16.7015 3.1486 16.6347 3.30478 16.5826 3.46624C15.2525 2.74372 13.5885 3.23624 12.866 4.56634C12.6478 4.96799 12.5335 5.41782 12.5335 5.87499L12.5366 9.39998H11.6087C9.95412 9.40214 8.47862 10.4419 7.9201 11.9995ZM34.1541 10.9667H35.3917C36.3846 10.9683 37.27 11.5921 37.6056 12.5266L40.5965 20.9026C40.6873 21.1562 40.7337 21.4235 40.7336 21.6928V33.6834C40.7336 33.7773 40.7504 33.8705 40.7833 33.9584L45.0863 45.4333H35.0781L32.0726 33.4225L27.5103 20.4975C27.4484 20.3224 27.4168 20.1379 27.4169 19.9521V19.6542C27.4168 18.7498 28.1499 18.0166 29.0543 18.0166C29.6745 18.0166 30.2415 18.367 30.5189 18.9217L35.3329 28.5504L36.7343 27.8497L33.3464 21.0739L34.1541 10.9667ZM14.1003 5.87509C14.1003 5.22619 14.6264 4.70009 15.2753 4.70009C15.9242 4.70009 16.4503 5.22619 16.4503 5.87509V7.83342H18.017V4.30842C18.017 3.65953 18.5431 3.13343 19.192 3.13343C19.8408 3.13343 20.3669 3.65953 20.3669 4.30842V7.05008H21.9336V2.74176C21.9336 2.09287 22.4597 1.56676 23.1086 1.56676C23.7575 1.56676 24.2836 2.09287 24.2836 2.74176V6.26675H25.8503V2.74176C25.8503 2.09287 26.3764 1.56676 27.0253 1.56676C27.6742 1.56676 28.2003 2.09287 28.2003 2.74176V6.26675H29.7669V3.13343C29.7669 2.26814 30.4683 1.56676 31.3336 1.56676C32.1989 1.56676 32.9003 2.26814 32.9003 3.13343L32.9025 6.98771L31.9919 18.3635L31.9206 18.221C31.1293 16.6381 29.2048 15.9963 27.6219 16.7875C26.536 17.3302 25.8501 18.4401 25.8503 19.6542V19.9521C25.8502 20.3153 25.9117 20.6758 26.0323 21.0185L30.574 33.8734L30.7074 34.4075L30.333 39.1113C30.0293 42.6727 27.0593 45.4146 23.485 45.4333C19.944 45.4333 16.9353 42.6721 16.6355 39.1471L16.2463 34.583L16.4059 33.9441L20.9683 21.0176C21.0889 20.6754 21.1505 20.315 21.1503 19.9521V19.6542C21.1503 17.8845 19.7157 16.45 17.9461 16.45C16.7325 16.45 15.6231 17.1356 15.0802 18.221L14.8859 18.6096L14.1003 9.40008V5.87509ZM13.5433 21.2953L10.2663 27.8497L11.6677 28.5504L16.4816 18.9217C16.8861 18.1128 17.8697 17.7851 18.6786 18.1896C19.2333 18.4669 19.5837 19.034 19.5836 19.6542V19.9521C19.5838 20.1377 19.5522 20.3219 19.4903 20.4968L14.9073 33.4933L11.9217 45.4333H1.9143L6.21724 33.9584C6.25014 33.8705 6.26698 33.7773 6.26698 33.6834V21.6928C6.26688 21.4235 6.3133 21.1562 6.40406 20.9026L9.39512 12.5262C9.73097 11.592 10.6161 10.9684 11.6088 10.9667H12.6644L13.5433 21.2953Z" fill="#E2B9A2"/>
<path d="M21.906 17.3162L21.9894 17.5243L23.4444 16.9413L23.361 16.7336C22.3614 14.2335 19.72 12.8028 17.0798 13.3314L17.3873 14.8675C19.2869 14.4877 21.1869 15.5174 21.906 17.3162Z" fill="#E2B9A2"/>
<path d="M22.7167 20.2888C22.197 22.9305 23.2312 25.6371 25.3801 27.2593L26.3195 26.006C24.6519 24.7471 23.8493 22.6466 24.2526 20.5964L24.2678 20.5203L22.7317 20.2113L22.7167 20.2888Z" fill="#E2B9A2"/>
</svg>
