<svg width="46" height="51" viewBox="0 0 46 51" fill="none" xmlns="http://www.w3.org/2000/svg">
<path d="M27.389 0.0174732C27.3468 0.0137163 27.3096 0.0190386 27.2693 0.0185168C27.2667 0.0185168 27.264 0.0174732 27.2614 0.0174732C15.3262 -0.3961 2.78117 6.54009 3.86535 19.9609C3.86963 20.0153 3.88309 20.0634 3.8929 20.114C3.87725 20.2529 3.87725 20.3983 3.91096 20.5563C4.56539 23.619 3.56094 26.3116 1.04694 28.1892C0.931729 28.275 0.843441 28.3736 0.76632 28.4764C0.512207 28.6433 0.31163 28.8993 0.203515 29.2093C-0.268082 30.5627 0.090181 31.9406 1.17175 32.8822C1.35 33.0368 1.55652 33.1424 1.7714 33.199C2.46956 33.5848 3.19955 33.8412 3.95761 34.0204C3.8018 34.8609 3.8784 35.7108 4.28321 36.511C3.52734 37.9843 4.02909 39.6096 5.52142 40.4966C5.60564 40.5469 5.68965 40.5846 5.7723 40.6137C6.02558 40.9153 6.05 41.3996 5.9567 41.8655C5.92779 42.0079 5.92414 42.1505 5.93499 42.2894C5.92842 42.4156 5.93238 42.5438 5.9567 42.6731C6.35013 44.7366 8.11275 45.876 10.1296 45.9126C10.2382 45.9148 10.3384 45.9035 10.433 45.8844C10.5262 45.8887 10.624 45.8834 10.7249 45.867C13.9639 45.3418 17.6517 45.6353 18.8684 49.1928C19.1116 49.9035 19.7616 50.1446 20.344 50.0507C20.5403 50.1981 20.7987 50.2818 21.1244 50.259C26.9936 49.8488 32.8112 48.9962 38.6389 48.214C38.8451 48.1864 39.0237 48.1197 39.1778 48.0252C39.8843 47.8048 40.4549 47.0142 39.9987 46.162C36.1047 38.902 43.9985 30.9816 45.4967 24.0072C45.5296 23.8564 45.5301 23.7168 45.5169 23.5837C47.1003 12.1288 39.1741 1.0789 27.389 0.0174732ZM43.0309 23.0729C43.0156 23.1789 43.0135 23.2804 43.0193 23.3778C41.3919 30.8404 34.2549 38.0548 37.0804 45.8687C31.7732 46.5894 26.4696 47.3292 21.1237 47.7033C21.0858 47.7059 21.0527 47.716 21.0164 47.7219C19.1057 43.4692 14.6599 42.7066 10.2612 43.3727C10.2172 43.3674 10.1764 43.3578 10.1293 43.3569C9.62845 43.3473 9.36693 43.2954 8.97611 43.0569C9.01034 43.0676 8.77532 42.88 8.77741 42.8831C8.7438 42.8492 8.72283 42.829 8.70749 42.8158C8.70749 42.8056 8.69403 42.7755 8.64466 42.6954C8.57026 42.5762 8.51536 42.4082 8.46976 42.2185C8.69653 40.6521 8.25175 39.2913 6.93913 38.2897C6.83362 38.2097 6.71549 38.1647 6.59339 38.135C6.55551 38.1031 6.51867 38.0725 6.47891 38.0323C6.48611 38.0354 6.47943 38.0196 6.45668 37.9829C6.45668 37.9506 6.45449 37.94 6.45084 37.9432C6.46649 37.8754 6.48152 37.8075 6.50542 37.7417C6.50594 37.7391 6.6965 37.4435 6.75953 37.3544C6.93569 37.1058 6.9718 36.8043 6.91638 36.5144C6.96877 36.2283 6.93151 35.9295 6.75953 35.6804C6.27604 34.9798 6.37111 34.3836 6.75953 33.647C7.31576 32.5929 6.31382 31.6307 5.42625 31.7292C5.41696 31.7281 5.40871 31.725 5.39974 31.7234C4.49933 31.6046 3.62898 31.3412 2.84869 30.875C2.79276 30.8421 2.73786 30.8219 2.68307 30.797C2.64404 30.7403 2.60783 30.6825 2.57517 30.6227C2.56964 30.6062 2.56536 30.5919 2.55774 30.5686C2.55137 30.5389 2.54689 30.5193 2.54261 30.5002C2.54042 30.4414 2.54209 30.3836 2.5447 30.3248C2.54897 30.3089 2.55722 30.2723 2.56807 30.2156C5.81519 27.6783 7.20994 24.1909 6.41984 20.1146C6.42141 20.0635 6.42673 20.0158 6.42245 19.9614C5.44785 7.8978 16.6709 2.20775 27.2608 2.57436C27.2942 2.57541 27.3238 2.56956 27.3562 2.56852C27.3678 2.56956 27.3773 2.57322 27.3889 2.57436C37.4428 3.48009 44.4634 13.2853 43.0309 23.0729Z" fill="#E2B9A2"/>
</svg>
