<svg width="24" height="38" viewBox="0 0 24 38" fill="none" xmlns="http://www.w3.org/2000/svg">
<path d="M21.8891 3.22064H20.2395V1.29039C20.2395 0.838591 20.0097 0.427396 19.6259 0.19114C19.2467 -0.0428296 18.7641 -0.0635372 18.366 0.137488C17.1325 0.760466 14.634 1.16306 12.0006 1.16306C9.36713 1.16306 6.86863 0.760466 5.63464 0.137219C5.23743 -0.0631338 4.75524 -0.042964 4.37565 0.190468C3.99121 0.427396 3.76168 0.838456 3.76168 1.29039V3.22064H2.11206C0.948125 3.22064 0.0012207 4.16755 0.0012207 5.33148V6.7985C0.0012207 7.96243 0.948125 8.90933 2.11206 8.90933H3.76168V9.87264C3.76168 10.6372 4.20851 11.3415 4.90006 11.6671C7.2333 12.7653 11.2244 12.8209 12.0008 12.8209C14.2431 12.8209 17.2853 12.518 19.0987 11.6676C19.7917 11.3426 20.2396 10.6379 20.2396 9.87197V8.90933H21.8892C23.0531 8.90933 24.0001 7.96243 24.0001 6.7985V5.33148C23.9999 4.16755 23.053 3.22064 21.8891 3.22064ZM21.9829 6.7985C21.9829 6.85027 21.9408 6.89235 21.8891 6.89235H19.231C18.6739 6.89235 18.2225 7.34375 18.2225 7.90084V9.85059C16.703 10.554 13.9247 10.8039 12.0006 10.8039C10.0723 10.8039 7.29126 10.5542 5.77866 9.85126V7.90098C5.77866 7.34389 5.32726 6.89249 4.77017 6.89249H2.11206C2.06029 6.89249 2.0182 6.8504 2.0182 6.79863V5.33148C2.0182 5.27971 2.06029 5.23762 2.11206 5.23762H4.77017C5.32726 5.23762 5.77866 4.78622 5.77866 4.22913V2.3637C7.36024 2.88193 9.58564 3.1799 12.0006 3.1799C14.4156 3.1799 16.6413 2.88193 18.2225 2.36383V4.22913C18.2225 4.78622 18.6739 5.23762 19.231 5.23762H21.8891C21.9408 5.23762 21.9829 5.27971 21.9829 5.33148V6.7985Z" fill="#E2B9A2"/>
<path d="M21.6318 15.673H20.2385V13.7427C20.2385 13.2975 20.0031 12.8762 19.6249 12.6435C19.2458 12.4095 18.7632 12.3888 18.365 12.5898C17.1316 13.2128 14.6331 13.6154 11.9997 13.6154C9.36618 13.6154 6.86768 13.2128 5.63369 12.5896C5.23554 12.3888 4.75295 12.4094 4.37577 12.6424C3.99644 12.8754 3.76073 13.2971 3.76073 13.7429V15.6731H2.36713C1.06187 15.6731 0 16.7349 0 18.0402V18.9951C0 20.3002 1.06174 21.3621 2.36713 21.3621H3.76046V22.3254C3.76046 23.09 4.20728 23.7943 4.89884 24.1198C7.23208 25.218 11.2231 25.2737 11.9996 25.2737C14.2422 25.2737 17.2844 24.9707 19.0974 24.1204C19.7905 23.7954 20.2384 23.0906 20.2384 22.3247V21.3621H21.6317C22.937 21.3621 23.9988 20.3003 23.9988 18.9951V18.0402C23.9988 16.7347 22.9371 15.673 21.6318 15.673ZM21.9819 18.9948C21.9819 19.1878 21.8248 19.3448 21.6317 19.3448H19.2299C18.6728 19.3448 18.2214 19.7962 18.2214 20.3533V22.3031C16.7023 23.0065 13.9237 23.2564 11.9996 23.2564C10.0712 23.2564 7.29017 23.0067 5.77757 22.3037V20.3533C5.77757 19.7962 5.32617 19.3448 4.76908 19.3448H2.36713C2.17403 19.3448 2.01698 19.1878 2.01698 18.9948V18.04C2.01698 17.8469 2.17403 17.6898 2.36713 17.6898H4.76895C5.32604 17.6898 5.77744 17.2384 5.77744 16.6813V14.8159C7.35902 15.3341 9.58442 15.6321 11.9994 15.6321C14.4144 15.6321 16.6401 15.3341 18.2213 14.816V16.6813C18.2213 17.2384 18.6727 17.6898 19.2297 17.6898H21.6316C21.8247 17.6898 21.9817 17.8469 21.9817 18.04V18.9948H21.9819Z" fill="#E2B9A2"/>
<path d="M7.71223 3.62671C7.15514 3.62671 6.70374 4.07811 6.70374 4.6352V8.5121C6.70374 9.06919 7.15514 9.52059 7.71223 9.52059C8.26932 9.52059 8.72072 9.06919 8.72072 8.5121V4.6352C8.72072 4.07811 8.26932 3.62671 7.71223 3.62671Z" fill="#E2B9A2"/>
<path d="M7.71223 16.1753C7.15514 16.1753 6.70374 16.6267 6.70374 17.1838V20.9262C6.70374 21.4833 7.15514 21.9347 7.71223 21.9347C8.26932 21.9347 8.72072 21.4833 8.72072 20.9262V17.1838C8.72072 16.6267 8.26932 16.1753 7.71223 16.1753Z" fill="#E2B9A2"/>
<path d="M21.6318 28.1734H20.2385V26.243C20.2385 25.7978 20.0031 25.3765 19.624 25.1431C19.2448 24.9099 18.7626 24.8893 18.365 25.09C17.1316 25.7129 14.6331 26.1155 11.9997 26.1155C9.36618 26.1155 6.86768 25.7129 5.63369 25.0897C5.23554 24.8889 4.75295 24.9095 4.37577 25.1425C3.99644 25.3756 3.76073 25.7972 3.76073 26.243V28.1734H2.36713C1.06187 28.1734 0 29.2351 0 30.5404V31.4952C0 32.8005 1.06174 33.8623 2.36713 33.8623H3.76046V34.8255C3.76046 35.5898 4.20715 36.2941 4.89897 36.6201C7.23249 37.7183 11.2231 37.7739 11.9996 37.7739C14.242 37.7739 17.2842 37.471 19.0974 36.6205C19.7905 36.2955 20.2384 35.5908 20.2384 34.8248V33.8623H21.6317C22.937 33.8623 23.9988 32.8006 23.9988 31.4952V30.5404C23.9988 29.2352 22.9371 28.1734 21.6318 28.1734ZM21.9819 31.4951C21.9819 31.6882 21.8248 31.8452 21.6317 31.8452H19.2299C18.6728 31.8452 18.2214 32.2966 18.2214 32.8537V34.8033C16.7021 35.5068 13.9236 35.7568 11.9996 35.7568C10.0712 35.7568 7.29017 35.5071 5.77757 34.8041V32.8537C5.77757 32.2966 5.32617 31.8452 4.76908 31.8452H2.36713C2.17403 31.8452 2.01698 31.6882 2.01698 31.4951V30.5402C2.01698 30.3471 2.17403 30.1902 2.36713 30.1902H4.76895C5.32604 30.1902 5.77744 29.7388 5.77744 29.1817V27.3163C7.35902 27.8345 9.58442 28.1324 11.9994 28.1324C14.4144 28.1324 16.6401 27.8344 18.2213 27.3163V29.1817C18.2213 29.7388 18.6727 30.1902 19.2297 30.1902H21.6316C21.8247 30.1902 21.9817 30.3471 21.9817 30.5402V31.4951H21.9819Z" fill="#E2B9A2"/>
<path d="M7.71223 28.6757C7.15514 28.6757 6.70374 29.1271 6.70374 29.6841V33.4267C6.70374 33.9838 7.15514 34.4352 7.71223 34.4352C8.26932 34.4352 8.72072 33.9838 8.72072 33.4267V29.6841C8.72072 29.1271 8.26932 28.6757 7.71223 28.6757Z" fill="#E2B9A2"/>
</svg>
