<svg width="44" height="51" viewBox="0 0 44 51" fill="none" xmlns="http://www.w3.org/2000/svg">
<path d="M25.0538 38.5338C23.2396 40.3805 20.2877 40.3805 18.4735 38.5338C18.1022 38.1559 17.5002 38.1559 17.1289 38.5338C16.7575 38.9118 16.7575 39.5245 17.1289 39.9025C18.4067 41.2031 20.0852 41.8534 21.7637 41.8534C23.4422 41.8534 25.1207 41.2031 26.3986 39.9025C26.77 39.5245 26.77 38.9118 26.3986 38.5338C26.0273 38.1559 25.4251 38.1559 25.0538 38.5338Z" fill="#E2B9A2"/>
<path d="M43.2815 48.1356C41.0541 45.625 40.9598 39.2279 41.2234 32.6088C42.1937 31.6813 42.8015 30.3653 42.8015 28.9068C42.8015 27.6259 42.3325 26.4552 41.5615 25.5606C41.8855 18.8095 42.0573 14.2948 39.9535 10.126C38.5181 7.28158 36.1957 4.90494 33.0507 3.06219C29.3853 0.914563 25.2041 -0.139651 20.9588 0.0148399C17.2298 0.150095 13.7581 1.91845 11.3641 4.88547C8.27287 5.07262 5.46083 6.78496 3.9479 9.43151C3.81799 9.65871 3.69236 9.89232 3.57446 10.1259C1.46938 14.2969 1.64113 18.8113 1.96513 25.5617C1.19459 26.4562 0.726052 27.6264 0.726052 28.9068C0.726052 30.3648 1.33341 31.6805 2.30316 32.608C2.56679 39.2275 2.47253 45.6251 0.245157 48.1357C0.0345422 48.3731 -0.0472315 48.7011 0.0266975 49.0121C0.100627 49.323 0.320749 49.5767 0.614683 49.6898C3.12173 50.654 5.54974 50.9988 7.7411 50.9988C10.0176 50.9988 12.0386 50.6264 13.6252 50.1897C16.3821 49.4309 18.3266 48.3658 18.9901 47.9727C19.893 48.1242 20.8193 48.2044 21.7637 48.2044C22.7079 48.2044 23.6339 48.1243 24.5366 47.9729C25.2002 48.366 27.1446 49.4309 29.9013 50.1897C32.0177 50.7722 33.9798 51 35.7548 51C38.7116 51 41.1488 50.3676 42.9118 49.6896C43.2059 49.5764 43.4259 49.3229 43.4998 49.0118C43.5738 48.701 43.4921 48.3731 43.2815 48.1356ZM38.7603 30.9045V26.0998C38.7605 26.0871 38.7605 26.0743 38.7603 26.0614V25.9142C40.0003 26.3235 40.8997 27.5099 40.8997 28.9066C40.8997 30.3145 39.9863 31.5093 38.7309 31.9092C38.7497 31.5766 38.7603 31.2419 38.7603 30.9045ZM5.26603 11.0104C5.36884 10.8068 5.47831 10.6031 5.59158 10.405C6.84397 8.21421 9.2393 6.83456 11.8427 6.80444C11.8457 6.80444 11.8528 6.80432 11.8559 6.8042C12.1448 6.79803 12.415 6.65866 12.5908 6.42541C14.6429 3.70084 17.7176 2.06931 21.0266 1.94918C24.9154 1.808 28.7454 2.77305 32.1018 4.73969C34.924 6.39335 36.9965 8.50311 38.2616 11.0104C39.9456 14.347 39.9955 17.9765 39.7194 24.2129C39.4137 24.0836 39.0928 23.9847 38.7603 23.919V22.9349C38.7603 22.4004 38.3345 21.967 37.8094 21.967C37.2843 21.967 36.8585 22.4004 36.8585 22.9349V25.1329C23.7606 25.2753 16.6701 18.8539 14.7781 16.8448C14.5555 16.6084 14.2306 16.5026 13.9149 16.5635C13.5988 16.6243 13.3345 16.8437 13.2122 17.1465C11.8305 20.5675 9.41639 22.3574 5.61511 22.7792C5.13267 22.8326 4.7673 23.2473 4.7673 23.7413V23.9189C4.43439 23.9846 4.11312 24.0836 3.80718 24.2131C3.53096 17.9782 3.58123 14.3488 5.26603 11.0104ZM4.79654 31.9093C3.54118 31.5094 2.62776 30.3146 2.62776 28.9068C2.62776 27.5099 3.52715 26.3235 4.76719 25.9143V30.9045C4.76719 31.2419 4.77776 31.5767 4.79654 31.9093ZM2.47372 48.288C4.16934 45.3422 4.46339 40.445 4.24778 33.7626C4.50023 33.842 4.76148 33.9005 5.02915 33.9383C6.11062 40.1357 10.4452 45.2021 16.1654 47.2391C13.4143 48.4441 8.20714 50.0408 2.47372 48.288ZM21.7637 46.2687C13.4404 46.2687 6.6689 39.3763 6.6689 30.9044L6.66901 24.586C10.2351 23.9887 12.774 22.2018 14.3834 19.1529C15.7534 20.425 17.9684 22.1697 21.09 23.6987C25.7837 25.9978 31.0844 27.1317 36.8585 27.069V30.9044C36.8585 39.3764 30.087 46.2687 21.7637 46.2687ZM30.4602 48.3382C29.241 48.0065 28.189 47.6057 27.3585 47.2403C33.0806 45.2042 37.4167 40.137 38.4984 33.9383C38.7658 33.9005 39.0267 33.8421 39.2789 33.7629C39.0632 40.4461 39.3572 45.3433 41.0536 48.289C37.6955 49.3215 34.1381 49.339 30.4602 48.3382Z" fill="#E2B9A2"/>
<path d="M10.3987 28.0362C10.0273 28.4142 10.0273 29.0269 10.3987 29.4049C10.77 29.7828 11.372 29.7828 11.7433 29.4049C12.3528 28.7847 13.3443 28.7846 13.9538 29.4049C14.1395 29.5938 14.3828 29.6883 14.6262 29.6883C14.8696 29.6883 15.1129 29.5938 15.2986 29.4049C15.67 29.0269 15.67 28.4142 15.2986 28.0362C13.9478 26.6612 11.7495 26.661 10.3987 28.0362Z" fill="#E2B9A2"/>
<path d="M33.1289 29.4048C33.5003 29.0269 33.5003 28.4141 33.1289 28.0362C31.778 26.6611 29.5798 26.6611 28.229 28.0362C27.8576 28.4141 27.8576 29.0269 28.229 29.4048C28.6003 29.7827 29.2023 29.7827 29.5736 29.4048C30.1831 28.7845 31.1748 28.7847 31.7841 29.4048C31.9698 29.5938 32.2131 29.6883 32.4565 29.6883C32.6999 29.6883 32.9432 29.5938 33.1289 29.4048Z" fill="#E2B9A2"/>
</svg>
