<svg width="57" height="43" viewBox="0 0 57 43" fill="none" xmlns="http://www.w3.org/2000/svg">
<path d="M54.6324 24.1491C55.1316 23.9983 55.5887 23.7233 55.9664 23.3394C56.5676 22.7307 56.8988 21.9201 56.8988 21.057C56.8988 20.1957 56.568 19.3851 55.9672 18.7751L54.5898 17.3765C55.0791 17.2284 55.5405 16.9586 55.926 16.5668C56.5259 15.9576 56.8563 15.1474 56.8563 14.2853C56.8563 13.4222 56.5259 12.6116 55.926 12.0025L48.0127 3.967C46.0332 1.95747 43.373 0.56019 40.7141 0.134836C37.6407 -0.357518 34.8281 0.508178 32.7944 2.57324L30.9898 4.40557C29.8772 5.53486 29.0211 6.855 28.449 8.29283C27.8768 6.85544 27.0203 5.5353 25.9082 4.40601L24.104 2.57324C20.5748 -1.01076 15.6494 -0.334157 12.2165 1.49377C11.8081 1.71151 11.6505 2.2237 11.8649 2.63848C12.0789 3.05325 12.5838 3.21326 12.9919 2.99551C15.899 1.44748 20.0343 0.838765 22.9233 3.77217L24.727 5.6045C26.5893 7.49502 27.6146 10.0084 27.6146 12.6813V24.1486C27.6146 25.2532 26.7291 26.152 25.6403 26.152C24.5529 26.152 23.6678 25.2528 23.6678 24.1464L23.6738 18.2695L25.0751 16.8462C25.4016 16.5152 25.4016 15.9783 25.0756 15.6473C24.7491 15.3158 24.2204 15.3158 23.8944 15.6468L10.3751 29.3746C10.0894 29.6642 9.7109 29.8237 9.30892 29.8237C8.90564 29.8237 8.52753 29.6646 8.24233 29.3741C7.65455 28.7782 7.65412 27.8076 8.24189 27.2103C8.24363 27.2086 8.24493 27.2064 8.24667 27.2046L16.8984 18.4198C17.2244 18.0888 17.2244 17.5519 16.8984 17.2209C16.5723 16.8898 16.0436 16.8898 15.7176 17.2209L4.97526 28.1289C4.69049 28.4181 4.31152 28.5776 3.90867 28.5776C3.50539 28.5776 3.12685 28.4181 2.84164 28.1289C2.5573 27.8398 2.40059 27.4554 2.40059 27.0463C2.40059 26.6364 2.5573 26.2516 2.84164 25.9625L13.0448 15.6028C13.3708 15.2717 13.3708 14.7349 13.0448 14.4038C12.7188 14.0728 12.1901 14.0728 11.8641 14.4038L4.24857 22.1365C4.24727 22.1378 4.24597 22.1387 4.2451 22.1396C3.96033 22.4283 3.58135 22.5878 3.17764 22.5878C2.77479 22.5878 2.39625 22.4283 2.11061 22.1387C1.82671 21.8513 1.67043 21.4669 1.67043 21.057C1.67043 20.6475 1.82714 20.2632 2.11148 19.9744L10.4246 11.5335C10.7506 11.2024 10.7506 10.6656 10.4246 10.3345C10.0981 10.0031 9.56938 10.0031 9.24337 10.3345L4.28634 15.3678L4.2859 15.3683C4.00113 15.6574 3.62259 15.8165 3.21975 15.8165C2.8169 15.8165 2.43836 15.6574 2.15402 15.3678C1.86925 15.0791 1.71254 14.6943 1.71254 14.2853C1.71254 13.8753 1.86925 13.4905 2.15359 13.2018L10.0673 5.16636C10.1906 5.04118 10.3152 4.92041 10.4376 4.80713C10.7788 4.49153 10.8035 3.95554 10.4932 3.60908C10.1828 3.26307 9.65446 3.23794 9.31369 3.5531C9.17174 3.68445 9.02805 3.8233 8.88654 3.967L0.972826 12.0025C0.372895 12.6121 0.0425421 13.4227 0.0425421 14.2853C0.0425421 15.1474 0.372895 15.958 0.972826 16.5668C1.35093 16.9511 1.80804 17.227 2.30683 17.3782L0.930718 18.7755C0.330353 19.3842 0 20.1948 0 21.057C0 21.9205 0.330787 22.7311 0.930284 23.3385C1.30882 23.7229 1.76637 23.9983 2.26559 24.1491L1.66088 24.7635C1.06052 25.3727 0.730162 26.1833 0.730162 27.0463C0.730162 27.9085 1.06095 28.7187 1.66088 29.3278C2.26125 29.9374 3.05956 30.2733 3.90823 30.2733C4.75734 30.2733 5.55566 29.9374 6.15602 29.3278L6.26455 29.2181C6.40997 29.7144 6.67521 30.1821 7.0607 30.573C7.66063 31.1835 8.45894 31.5194 9.30848 31.5194C10.1572 31.5194 10.955 31.1835 11.5558 30.5739L22.0021 19.9678L21.9973 24.1478C21.9973 26.1877 23.6317 27.8477 25.6403 27.8477C26.7694 27.8477 27.7805 27.3236 28.449 26.5029C29.1179 27.3236 30.1285 27.8477 31.2572 27.8477C33.2658 27.8477 34.9002 26.1877 34.9002 24.1447L34.8963 19.9674L41.5372 26.7109C41.8637 27.0419 42.3924 27.0419 42.7184 26.7109C43.0444 26.3799 43.0444 25.843 42.7184 25.512L33.0032 15.6473C32.6772 15.3163 32.1484 15.3163 31.8224 15.6473C31.496 15.9783 31.496 16.5152 31.8224 16.8462L33.225 18.2704L33.2302 24.1478C33.2302 25.2528 32.3451 26.152 31.2572 26.152C30.1693 26.152 29.2842 25.2532 29.2842 24.1486V12.6813C29.2842 10.0075 30.3091 7.49458 32.1706 5.6045L33.9751 3.77217C36.0844 1.63041 38.6626 1.52286 40.4541 1.80937C42.7375 2.17522 45.1216 3.43012 46.8315 5.16592L54.7452 13.2014C55.0296 13.4905 55.1863 13.8753 55.1863 14.2853C55.1863 14.6943 55.0296 15.0791 54.7452 15.3678C54.1575 15.9646 53.202 15.9651 52.6138 15.37C52.6129 15.3691 52.6125 15.3683 52.6116 15.3678L47.6546 10.3341C47.3286 10.0031 46.7998 10.0031 46.4738 10.3341C46.1474 10.6656 46.1474 11.2024 46.4738 11.5335L54.786 19.974C55.0717 20.264 55.2288 20.6484 55.2288 21.057C55.2288 21.466 55.0717 21.8504 54.786 22.1396C54.5017 22.4283 54.1232 22.5874 53.7203 22.5874C53.317 22.5874 52.9385 22.4283 52.6537 22.1396C52.6503 22.136 52.6468 22.1329 52.6429 22.1294L45.0343 14.4034C44.7079 14.0724 44.1796 14.0724 43.8531 14.4034C43.5271 14.7349 43.5271 15.2717 43.8531 15.6023L54.0563 25.9625C54.3415 26.2521 54.4982 26.6369 54.4982 27.0459C54.4982 27.4545 54.3415 27.8389 54.0559 28.1285C53.7711 28.4181 53.3926 28.5772 52.9897 28.5772C52.5873 28.5772 52.2083 28.4181 51.9236 28.1285L41.1808 17.2209C40.8544 16.8898 40.3261 16.8898 39.9996 17.2209C39.6736 17.5519 39.6736 18.0888 39.9996 18.4198L48.6574 27.2103C48.6578 27.2108 48.6582 27.2112 48.6587 27.2116C49.2443 27.8085 49.2434 28.7782 48.6565 29.3746C48.3713 29.6642 47.9919 29.8237 47.589 29.8237C47.1871 29.8237 46.8081 29.6642 46.5229 29.3746L45.0791 27.9081C44.7526 27.5771 44.2239 27.5771 43.8979 27.9081C43.5718 28.2395 43.5718 28.776 43.8979 29.107L45.3421 30.5735C45.9429 31.1835 46.7408 31.5194 47.589 31.5194C48.4382 31.5194 49.2365 31.1835 49.8373 30.5735C50.2228 30.1821 50.4884 29.714 50.6338 29.2172L50.7428 29.3278C51.3432 29.937 52.1415 30.2729 52.9902 30.2729C53.8388 30.2729 54.6367 29.937 55.2371 29.3278C55.8379 28.7178 56.1687 27.9076 56.1687 27.0459C56.1687 26.1837 55.8379 25.3731 55.2375 24.7635L54.6324 24.1491Z" fill="#E2B9A2"/>
<path d="M28.7868 36.0049C32.5835 36.0049 36.2212 34.3625 38.7668 31.4988C39.0759 31.1514 39.049 30.6154 38.7065 30.3016C38.3644 29.9878 37.8361 30.0151 37.527 30.3629C35.2975 32.8705 32.112 34.3092 28.7868 34.3092C25.462 34.3092 22.2761 32.8705 20.0465 30.3629C19.7375 30.0151 19.2096 29.9878 18.8671 30.3016C18.525 30.615 18.4981 31.1514 18.8067 31.4988C21.3528 34.3625 24.9901 36.0049 28.7868 36.0049Z" fill="#E2B9A2"/>
<path d="M40.5136 35.9714C37.2704 38.8563 33.1061 40.4449 28.7868 40.4449C24.4679 40.4449 20.3031 38.8563 17.0603 35.9714C16.7135 35.6628 16.1856 35.6981 15.8817 36.0507C15.5779 36.4029 15.613 36.9384 15.9599 37.247C19.5074 40.403 24.0628 42.1406 28.7868 42.1406C33.5111 42.1406 38.0662 40.4025 41.6141 37.247C41.9609 36.9384 41.9957 36.4029 41.6918 36.0507C41.3879 35.6985 40.8605 35.6628 40.5136 35.9714Z" fill="#E2B9A2"/>
</svg>
