<svg width="49" height="27" viewBox="0 0 49 27" fill="none" xmlns="http://www.w3.org/2000/svg">
<path d="M48.6625 12.8487L43.6675 7.85291C38.6031 2.7885 31.87 0 24.7079 0H24.1859C17.0238 0 10.2907 2.7885 5.22627 7.85291L0.231258 12.8487C-0.0770859 13.1571 -0.0770859 13.6554 0.231258 13.9638L5.22627 18.9596C10.2907 24.024 17.0238 26.8125 24.1859 26.8125H24.7079C31.87 26.8125 38.6031 24.024 43.6675 18.9596L48.6625 13.9638C48.9709 13.6554 48.9709 13.1571 48.6625 12.8487ZM24.7079 1.57721C27.3158 1.57721 29.8606 1.97466 32.2801 2.73172C35.3194 5.14406 37.0645 8.73851 37.0645 12.6176C37.0645 19.5747 31.4039 25.2353 24.4469 25.2353C17.4898 25.2353 11.8292 19.5747 11.8292 12.6176C11.8292 8.73851 13.5744 5.14406 16.6137 2.73172C19.0323 1.97466 21.5779 1.57721 24.1859 1.57721H24.7079ZM6.34214 17.8445L1.90388 13.4062L6.34135 8.96799C8.32863 6.98071 10.5919 5.37196 13.0413 4.16382C11.2441 6.57931 10.252 9.51765 10.252 12.6176C10.252 17.149 12.3947 21.1819 15.7115 23.7827C12.2275 22.5446 9.03364 20.5368 6.34214 17.8445ZM42.5516 17.8445C39.8593 20.5368 36.6655 22.5446 33.1822 23.7827C36.4991 21.1819 38.6417 17.149 38.6417 12.6176C38.6417 9.51765 37.6497 6.57931 35.8525 4.16382C38.3011 5.37118 40.5644 6.98071 42.5524 8.96799L46.9899 13.4062L42.5516 17.8445Z" fill="#E2B9A2"/>
<path d="M16.5609 13.4062C16.5609 17.7545 20.0985 21.2922 24.4469 21.2922C28.7952 21.2922 32.3329 17.7545 32.3329 13.4062C32.3329 9.05781 28.7952 5.52014 24.4469 5.52014C20.0985 5.52014 16.5609 9.05781 16.5609 13.4062ZM30.7557 13.4062C30.7557 16.8847 27.9254 19.715 24.4469 19.715C20.9684 19.715 18.1381 16.8847 18.1381 13.4062C18.1381 12.3983 18.3817 11.4489 18.8036 10.6027C19.2492 11.1784 19.8817 11.5971 20.6151 11.7564C20.9187 12.7122 21.8145 13.4062 22.8697 13.4062C24.174 13.4062 25.2355 12.3447 25.2355 11.0404C25.2355 10.3298 24.9208 9.6745 24.3972 9.23288C24.4303 9.04993 24.4469 8.86303 24.4469 8.67455C24.4469 8.11859 24.2978 7.58549 24.0329 7.11864C24.1701 7.10918 24.3073 7.09735 24.4469 7.09735C27.9254 7.09735 30.7557 9.92764 30.7557 13.4062ZM22.3058 7.47982C22.6552 7.77634 22.8697 8.20612 22.8697 8.67455C22.8697 8.88432 22.8287 9.08699 22.7482 9.28099C22.6678 9.4742 22.667 9.69185 22.7467 9.88585C22.8263 10.0791 22.9793 10.2328 23.1733 10.3133C23.4674 10.4355 23.6583 10.7218 23.6583 11.0404C23.6583 11.4757 23.3042 11.829 22.8697 11.829C22.4352 11.829 22.0811 11.4757 22.0811 11.0404C22.0811 10.6043 21.7278 10.2518 21.2925 10.2518C20.5938 10.2518 19.9992 9.79989 19.7941 9.16112C20.4771 8.41274 21.3351 7.83154 22.3058 7.47982Z" fill="#E2B9A2"/>
</svg>
