<svg width="45" height="50" viewBox="0 0 45 50" fill="none" xmlns="http://www.w3.org/2000/svg">
<path d="M44.1721 25.3914C43.753 24.1255 43.8337 24.7106 43.8337 21.8856C43.8337 19.2729 42.8165 16.8167 40.9686 14.9692C40.7035 14.7037 40.5003 14.3755 40.3821 14.0188L39.4155 11.1206C39.156 10.3422 38.7122 9.62348 38.1317 9.04295C36.829 7.74032 36.1114 6.0081 36.1114 4.16587V1.44195C36.1114 0.645496 35.4656 0 34.6695 0C33.873 0 33.2275 0.645496 33.2275 1.44195V4.16549C33.2275 6.77827 34.2448 9.23446 36.0923 11.0819C36.3578 11.3474 36.5605 11.6756 36.6792 12.0324L37.6457 14.9305C37.9052 15.7089 38.3491 16.4277 38.9296 17.0082C40.2322 18.3108 40.9498 20.043 40.9498 21.8853C40.9498 24.9288 40.874 24.6062 41.4357 26.3009C42.0136 28.0346 41.7639 29.9012 40.7497 31.4228L40.7133 31.4776C40.711 31.481 40.7084 31.4843 40.7061 31.4877C39.3276 33.5553 39.4054 35.4812 39.4054 36.212C39.4054 38.1349 38.4505 39.9193 36.8501 40.9858C35.5489 41.8536 34.772 43.3053 34.772 44.8689V47.7765C34.772 48.5729 35.4175 49.2184 36.2139 49.2184C37.01 49.2184 37.6559 48.5729 37.6559 47.7765V44.8689C37.6559 44.2715 37.9525 43.7169 38.4497 43.3853C40.8541 41.783 42.2893 39.1015 42.2893 36.212C42.2893 35.7231 42.1988 34.4478 43.1056 33.0874L43.1413 33.0337C43.1439 33.0299 43.1465 33.0262 43.1492 33.0224C44.6606 30.7547 45.0331 27.9722 44.1721 25.3914Z" fill="#E2B9A2"/>
<path d="M9.95771 0C9.16126 0 8.51576 0.645496 8.51576 1.44195V4.16549C8.51576 6.00773 7.79817 7.73994 6.49554 9.04295C5.91501 9.62348 5.47116 10.3418 5.21168 11.1206L4.24513 14.0184C4.12647 14.3751 3.92369 14.7033 3.65821 14.9688C1.81072 16.8163 0.793471 19.2729 0.793471 21.8853C0.793471 24.7106 0.874205 24.1255 0.454765 25.3914C-0.406272 27.9722 -0.033394 30.7547 1.47802 33.0224C1.48027 33.0262 1.4829 33.0299 1.48553 33.0337L1.5212 33.0874C2.42805 34.4478 2.33793 35.7231 2.33793 36.212C2.33793 39.1015 3.77312 41.783 6.17711 43.3853C6.67428 43.7169 6.97131 44.2715 6.97131 44.8689V47.7765C6.97131 48.5729 7.6168 49.2184 8.41325 49.2184C9.20932 49.2184 9.8552 48.5729 9.8552 47.7765V44.8689C9.8552 43.3053 9.07827 41.8536 7.77677 40.9858C6.17673 39.9193 5.22182 38.1349 5.22182 36.212C5.22182 35.4812 5.29917 33.5556 3.92069 31.4877C3.91844 31.4843 3.91618 31.481 3.91393 31.4776L3.87751 31.4231C2.86326 29.9012 2.61318 28.0346 3.19146 26.3012C3.75284 24.6062 3.67699 24.9291 3.67699 21.8856C3.67699 20.0434 4.39458 18.3112 5.69721 17.0082C6.27774 16.4277 6.72197 15.7093 6.98107 14.9305L7.94762 12.0327C8.06628 11.676 8.26943 11.3478 8.53454 11.0823C10.382 9.23483 11.3997 6.77827 11.3997 4.16587V1.44195C11.3997 0.645496 10.7542 0 9.95771 0V0Z" fill="#E2B9A2"/>
<path d="M28.4917 33.9788C25.88 33.9788 23.7554 31.8542 23.7554 29.2425V27.698C23.7554 26.9016 23.1099 26.2561 22.3134 26.2561C21.5174 26.2561 20.8715 26.9016 20.8715 27.698V29.2425C20.8715 31.8542 18.7469 33.9788 16.1356 33.9788C15.3392 33.9788 14.6937 34.6243 14.6937 35.4207C14.6937 36.2168 15.3392 36.8627 16.1356 36.8627C17.9245 36.8627 19.57 36.2412 20.8715 35.2052V47.7764C20.8715 48.5728 21.5174 49.2183 22.3134 49.2183C23.1099 49.2183 23.7554 48.5728 23.7554 47.7764V35.2052C25.0569 36.2412 26.7027 36.8623 28.4917 36.8623C29.2877 36.8623 29.9336 36.2168 29.9336 35.4203C29.9336 34.6243 29.2877 33.9788 28.4917 33.9788Z" fill="#E2B9A2"/>
<path d="M18.5831 16.6339C18.6492 16.668 20.8714 17.4998 20.8714 19.9759C20.8714 20.7723 21.5173 21.4178 22.3134 21.4178C23.1098 21.4178 23.7553 20.7723 23.7553 19.9759C23.7553 17.7364 25.5221 16.8945 26.0436 16.6339C26.7567 16.2801 27.0481 15.4146 26.6944 14.7015C26.3399 13.9881 25.4748 13.6967 24.7617 14.0508C24.1226 14.3681 23.1969 14.8247 22.3137 15.9065C21.4298 14.8236 20.5015 14.3666 19.8662 14.0508C19.1531 13.6967 18.2876 13.9877 17.9335 14.7011C17.579 15.4142 17.87 16.2798 18.5831 16.6339Z" fill="#E2B9A2"/>
</svg>
