<svg width="43" height="51" viewBox="0 0 43 51" fill="none" xmlns="http://www.w3.org/2000/svg">
<path d="M26.9089 28.9882C27.2857 30.4859 28.4925 31.6745 30.0586 31.9747L35.5809 33.0333C38.4925 33.5914 40.5232 36.2602 40.2983 39.2332L39.775 46.1531C39.6988 47.1613 38.8632 47.9402 37.8581 47.9402H4.8996C3.89449 47.9402 3.05888 47.1613 2.98268 46.1531L2.45937 39.2332C2.23451 36.2602 4.26508 33.5914 7.17684 33.0333L12.6992 31.9747C14.1717 31.6925 15.3255 30.6236 15.7715 29.2519C17.4415 30.6464 19.2841 31.3844 21.1875 31.3844C23.2076 31.3843 25.1594 30.5534 26.9089 28.9882ZM24.4091 38.2782C24.7219 38.2782 25.0265 38.1164 25.1967 37.8258C25.3637 37.5408 25.6592 37.3551 25.987 37.3292L33.0539 36.7697C33.5567 36.7299 33.9321 36.2877 33.8926 35.7819C33.8549 35.3007 33.4554 34.9353 32.9834 34.9353C32.9593 34.9353 32.935 34.9363 32.9106 34.9383L25.8437 35.4978C24.9225 35.5708 24.0922 36.0923 23.6231 36.8932C23.367 37.3302 23.5116 37.8935 23.9463 38.1509C24.0919 38.2373 24.2515 38.2782 24.4091 38.2782ZM18.3485 38.2782C18.5061 38.2782 18.6657 38.2371 18.8112 38.1508C19.2458 37.8933 19.3904 37.3302 19.1343 36.8931C18.6652 36.0921 17.8351 35.5705 16.9138 35.4976L9.84682 34.9381C9.82256 34.9361 9.7983 34.9352 9.77436 34.9352C9.30299 34.9352 8.90244 35.3004 8.86483 35.7818C8.82527 36.2875 9.20074 36.7298 9.70354 36.7696L16.7706 37.3291C17.0985 37.3551 17.3938 37.5407 17.5609 37.8257C17.7312 38.1166 18.0357 38.2782 18.3485 38.2782ZM28.2901 24.4646L25.2859 27.1525C23.9693 28.3303 22.5905 28.9276 21.1876 28.9276C19.8735 28.9276 18.5761 28.4007 17.3315 27.3615L14.5671 25.0532L13.4503 28.4882C13.2703 29.0418 12.8073 29.4531 12.2421 29.5613L6.7198 30.6199C2.58327 31.4128 -0.295278 35.1959 0.0241812 39.4195L0.547495 46.3393C0.719599 48.6146 2.63131 50.3968 4.89976 50.3968H37.8581C40.1266 50.3968 42.0383 48.6145 42.2104 46.3391L42.7337 39.4193C43.0532 35.1956 40.1746 31.4126 36.0381 30.6197L30.5158 29.5611C29.9138 29.4457 29.4275 28.9841 29.2767 28.3853L28.2901 24.4646Z" fill="#E2B9A2"/>
<path d="M21.1875 2.4568C26.4531 2.4568 30.7216 7.72271 30.7216 14.2187C30.7216 20.7144 26.4531 29.0879 21.1875 29.0879C15.922 29.0879 11.6534 20.7144 11.6534 14.2187C11.6534 7.72271 15.922 2.4568 21.1875 2.4568ZM15.4127 11.6269C15.8661 11.6269 16.2952 11.353 16.4733 10.9034C17.4152 8.52575 19.1335 7.16223 21.1877 7.16223C21.8181 7.16223 22.3291 6.64827 22.3291 6.01408C22.3291 5.3799 21.8181 4.86594 21.1877 4.86594C18.1945 4.86594 15.6393 6.80517 14.3527 10.0534C14.1192 10.6424 14.4048 11.3103 14.9905 11.545C15.129 11.6007 15.2718 11.6269 15.4127 11.6269ZM14.545 14.6985C15.1754 14.6985 15.6864 14.1844 15.6864 13.5504C15.6864 12.9164 15.1753 12.4023 14.545 12.4023C13.9145 12.4023 13.4036 12.9164 13.4036 13.5504C13.4036 14.1844 13.9145 14.6985 14.545 14.6985ZM21.1875 0C17.893 0 14.8265 1.54451 12.553 4.34919C10.398 7.00778 9.21106 10.5128 9.21106 14.2187C9.21106 17.8793 10.3842 22.0403 12.3492 25.3491C14.7218 29.3444 17.8606 31.5447 21.1875 31.5447C24.5145 31.5447 27.6534 29.3444 30.0259 25.3491C31.9908 22.0403 33.164 17.8793 33.164 14.2187C33.164 10.513 31.9772 7.00794 29.822 4.34919C27.5487 1.54451 24.4823 0 21.1875 0Z" fill="#E2B9A2"/>
</svg>
