<svg width="40" height="52" viewBox="0 0 40 52" fill="none" xmlns="http://www.w3.org/2000/svg">
<path d="M18.3333 30H16.6666V38.3333H18.3333V30Z" fill="#E2B9A2"/>
<path d="M23.3333 33.3333H21.6666V43.3332H23.3333V33.3333Z" fill="#E2B9A2"/>
<path d="M39.7558 14.4108L36.6667 11.3217V0.833333C36.6667 0.373125 36.2935 0 35.8333 0H25.8333C25.3731 0 25 0.373125 25 0.833333V11.3217L21.9108 14.4108C21.7546 14.5671 21.6667 14.7789 21.6667 15V21.6667C21.6667 23.0474 22.7859 24.1667 24.1667 24.1667C24.4512 24.1638 24.7331 24.1121 25 24.0133V29.1666C24.994 30.5413 26.1034 31.6607 27.4781 31.6669C28.1026 31.6697 28.7053 31.4376 29.1667 31.0166C30.1087 31.8833 31.5579 31.8833 32.5 31.0166C32.8648 31.3456 33.319 31.559 33.805 31.63C32.9402 34.0506 32.4987 36.6021 32.5 39.1725V42.3175C32.4992 44.7359 32.8892 47.1385 33.655 49.4325L33.8433 50H6.15668L6.34501 49.4325C7.11084 47.1385 7.50084 44.7359 7.50001 42.3175V39.1725C7.50136 36.602 7.0597 34.0504 6.19418 31.63C6.68063 31.5596 7.13522 31.3461 7.50001 31.0166C8.44209 31.8833 9.89126 31.8833 10.8333 31.0166C11.849 31.9431 13.4233 31.8708 14.3498 30.8552C14.7706 30.3938 15.0027 29.7911 15 29.1666V24.0133C15.2669 24.112 15.5488 24.1638 15.8333 24.1667C17.2141 24.1667 18.3333 23.0474 18.3333 21.6667V15C18.3333 14.7789 18.2454 14.5671 18.0892 14.4108L15 11.3217V0.833333C15 0.373125 14.6269 0 14.1667 0H4.16668C3.70647 0 3.33335 0.373125 3.33335 0.833333V11.3217L0.244181 14.4108C0.0879316 14.5671 1.47684e-05 14.7789 1.47684e-05 15V27.5C-0.00467273 28.8761 1.1071 29.9954 2.48324 30.0001C2.80772 30.0012 3.12939 29.9388 3.43001 29.8166C3.56991 30.3314 3.87137 30.7877 4.29001 31.1183L4.22668 31.1433L4.34334 31.435C5.3297 33.8953 5.83543 36.5219 5.83334 39.1725V42.3175C5.83386 44.5567 5.47314 46.7814 4.76501 48.9058L4.21001 50.5725C4.06595 51.0095 4.30355 51.4807 4.74064 51.6248C4.82439 51.6524 4.91189 51.6664 5.00001 51.6666H35C35.4602 51.6663 35.833 51.2929 35.8327 50.8327C35.8326 50.7434 35.8182 50.6547 35.79 50.57L35.235 48.9033C34.5272 46.7798 34.1665 44.5559 34.1667 42.3175V39.1725C34.1646 36.5222 34.6701 33.896 35.6558 31.4358L35.7733 31.1433L35.71 31.1183C36.1286 30.7877 36.4301 30.3314 36.57 29.8166C37.8448 30.3349 39.2983 29.7215 39.8166 28.4468C39.9387 28.1461 40.001 27.8245 40 27.5V15C40 14.7789 39.9121 14.5671 39.7558 14.4108ZM5.00001 29.1666V21.6667H3.33335V27.5C3.33335 27.9602 2.96022 28.3333 2.50001 28.3333C2.0398 28.3333 1.66668 27.9602 1.66668 27.5V15.345L4.75584 12.2558C4.91209 12.0996 5.00001 11.8877 5.00001 11.6667V1.66667H13.3333V11.6667C13.3333 11.8877 13.4213 12.0996 13.5775 12.2558L16.6667 15.345V21.6667C16.6667 22.1269 16.2935 22.5 15.8333 22.5C15.3731 22.5 15 22.1269 15 21.6667V18.3333H13.3333V29.1666C13.3333 29.6269 12.9602 30 12.5 30C12.0398 30 11.6667 29.6269 11.6667 29.1666V21.6667H10V29.1666C10 29.6269 9.62688 30 9.16667 30C8.70647 30 8.33334 29.6269 8.33334 29.1666V21.6667H6.66668V29.1666C6.66668 29.6269 6.29355 30 5.83334 30C5.37314 30 5.00001 29.6269 5.00001 29.1666ZM38.3333 27.5C38.3333 27.9602 37.9602 28.3333 37.5 28.3333C37.0398 28.3333 36.6667 27.9602 36.6667 27.5V21.6667H35V29.1666C35 29.6269 34.6269 30 34.1667 30C33.7064 30 33.3333 29.6269 33.3333 29.1666V21.6667H31.6667V29.1666C31.6667 29.6269 31.2935 30 30.8333 30C30.3731 30 30 29.6269 30 29.1666V21.6667H28.3333V29.1666C28.3333 29.6269 27.9602 30 27.5 30C27.0398 30 26.6667 29.6269 26.6667 29.1666V18.3333H25V21.6667C25 22.1269 24.6269 22.5 24.1667 22.5C23.7065 22.5 23.3333 22.1269 23.3333 21.6667V15.345L26.4225 12.2558C26.5787 12.0996 26.6667 11.8877 26.6667 11.6667V1.66667H35V11.6667C35 11.8877 35.0879 12.0996 35.2442 12.2558L38.3333 15.345V27.5Z" fill="#E2B9A2"/>
</svg>
