<svg width="42" height="29" viewBox="0 0 42 29" fill="none" xmlns="http://www.w3.org/2000/svg">
<path d="M40.6102 17.4059L40.4003 16.9353C39.5955 15.1578 38.7638 13.3161 38.803 9.29202V0.867327C38.803 0.444 38.4582 0.0999243 38.0356 0.0999243C37.613 0.0999243 37.2684 0.443754 37.2684 0.867327V9.28463C37.2234 13.6397 38.1675 15.7273 39.0009 17.5678L39.2091 18.0293C40.5805 21.121 40.8293 23.5862 39.9302 25.1658C38.9979 26.7995 37.075 27.0557 37.1006 27.0587H6.22973C2.48674 26.9521 1.51727 24.7732 1.53524 23.5022C1.54435 22.7799 1.8424 22.3199 2.04176 22.3199C3.92925 22.3199 7.21815 21.9618 8.78791 21.6497C13.6099 20.7056 23.0282 15.7241 25.6673 11.0461C26.463 9.64028 26.7734 6.39198 26.6173 1.11591L26.607 0.767402C26.607 0.344076 26.2637 0 25.8396 0C25.417 0 25.0724 0.34383 25.0724 0.767402L25.0828 1.15996C25.2718 7.61028 24.6917 9.64766 24.3304 10.2898C21.9701 14.477 13.0576 19.2458 8.49182 20.1434C6.98951 20.4358 3.84458 20.7819 2.04151 20.7819C0.881546 20.7819 0.0235715 21.9135 0.000436222 23.4781C-0.0332822 25.8579 1.88645 28.4685 6.20635 28.5913L37.1842 28.5868C37.2952 28.5733 39.9073 28.2691 41.2489 25.9415C42.4313 23.9012 42.2172 21.0297 40.6102 17.4059Z" fill="#E2B9A2"/>
<path d="M28.3242 20.4902C29.0586 20.5997 29.7374 20.6551 30.364 20.6551C32.3736 20.6551 33.8304 20.0858 34.7129 18.9558C36.582 16.5547 34.9738 12.647 34.9049 12.4814C34.743 12.0918 34.2889 11.9075 33.9022 12.0699C33.5097 12.2326 33.3268 12.6845 33.49 13.0741C33.8646 13.968 34.6007 16.5997 33.502 18.0085C32.7108 19.0216 31.046 19.3482 28.5535 18.9706C28.1371 18.9017 27.7443 19.1953 27.6813 19.6117C27.6168 20.0346 27.9062 20.4271 28.3242 20.4902Z" fill="#E2B9A2"/>
</svg>
