<svg width="43" height="51" viewBox="0 0 43 51" fill="none" xmlns="http://www.w3.org/2000/svg">
<path d="M42.2032 15.872L41.2428 12.8876V12.1137C41.2428 5.43429 35.9812 0 29.5138 0H17.3771C9.20579 0 2.55786 6.87006 2.55786 15.3145V20.4842C2.55786 23.1048 3.64948 25.6027 5.55272 27.3375C6.59045 28.2835 7.32537 29.517 7.67798 30.905L8.03 32.2902C8.53004 34.2581 8.51072 36.3334 7.97432 38.2915L4.83264 49.7601C4.75186 50.0551 4.81332 50.3709 4.99879 50.614C5.18426 50.8572 5.47263 50.9999 5.77853 50.9999C5.78003 50.9999 5.77853 50.9999 5.78003 50.9999C5.78152 50.9999 5.78003 50.9999 5.78152 50.9999H35.2017C35.501 50.9999 35.784 50.8631 35.9699 50.6288C36.156 50.3943 36.2248 50.0877 36.1568 49.7963L33.005 36.2884H34.0908C36.0467 36.2884 37.8595 35.2861 38.9399 33.6076L40.4851 31.2068C40.9808 30.4366 41.2429 29.5413 41.2429 28.6176V23.7823C41.2429 22.9719 41.4276 22.1609 41.7772 21.4365L41.8283 21.3309C42.653 19.6222 42.7861 17.6836 42.2032 15.872ZM18.2689 48.8371C18.2623 48.9122 18.2228 48.9599 18.1909 48.9867C18.159 49.0135 18.1047 49.0434 18.0298 49.0376L14.5613 48.7341C14.4401 48.7235 14.35 48.6162 14.3606 48.495L14.6641 45.0263C14.6707 44.9511 14.7102 44.9034 14.7421 44.8766C14.7741 44.8498 14.8271 44.8195 14.9032 44.8258L15.2874 44.8595L15.72 44.8973L18.3715 45.1293C18.4928 45.1399 18.5828 45.2473 18.5723 45.3685L18.2689 48.8371ZM18.445 41.1976C18.445 41.1977 18.445 41.1977 18.445 41.1978L18.2841 43.0362C18.2813 43.068 18.2676 43.0946 18.243 43.1152C18.2186 43.1356 18.1906 43.145 18.1585 43.1418C18.1584 43.1418 18.1584 43.1418 18.1583 43.1418L17.7257 43.104L15.4583 42.9056C15.4266 42.9028 15.4001 42.8891 15.3796 42.8646C15.3591 42.8402 15.3501 42.8117 15.3529 42.78L15.5137 40.9425C15.5137 40.9421 15.5138 40.9418 15.5138 40.9414C15.5138 40.9411 15.5138 40.9408 15.5138 40.9404L15.6745 39.1028C15.6798 39.0425 15.7305 38.997 15.7901 38.997C15.7935 38.997 15.7968 38.9972 15.8002 38.9975L16.5602 39.064L18.1432 39.2025C18.1433 39.2025 18.1434 39.2025 18.1436 39.2025L18.5003 39.2336C18.532 39.2364 18.5586 39.2502 18.5791 39.2747C18.5996 39.2991 18.6085 39.3276 18.6057 39.3594L18.445 41.1976ZM18.4693 35.2927C18.4693 35.2928 18.4693 35.2928 18.4693 35.2929L18.2983 37.2469L17.1868 37.1497L16.3443 37.0761L16.6861 33.168L18.6401 33.339L18.4693 35.2927ZM40.0615 20.4783L40.0104 20.5841C39.5334 21.5726 39.2811 22.6784 39.2811 23.7822V28.6176C39.2811 29.1639 39.127 29.6923 38.8354 30.1452L37.2902 32.546C36.5727 33.6611 35.3765 34.3269 34.0906 34.3269H31.7688C31.4695 34.3269 31.1865 34.4636 31.0005 34.698C30.8145 34.9325 30.7456 35.2391 30.8137 35.5305L33.9656 49.0384H20.2185C20.2196 49.0282 20.2217 49.0182 20.2226 49.0079L20.2889 48.2507L21.2661 48.3362C21.2951 48.3388 21.3241 48.34 21.3527 48.34C21.8556 48.34 22.2839 47.9551 22.3285 47.4446C22.3757 46.9051 21.9765 46.4292 21.437 46.3821L20.4599 46.2965L20.5262 45.5394C20.5784 44.9426 20.3839 44.38 20.0276 43.9525C20.1409 43.7258 20.2146 43.4746 20.238 43.2072L20.3133 42.3456L21.2904 42.4312C21.3194 42.4338 21.3484 42.435 21.377 42.435C21.8799 42.435 22.3082 42.0501 22.3528 41.5395C22.4 41 22.0008 40.5242 21.4613 40.4771L20.4843 40.3915L20.5596 39.5302C20.6073 38.9863 20.4427 38.457 20.0979 38.0352C20.1793 37.8464 20.2324 37.6444 20.2508 37.4335L20.3376 36.4406L21.3147 36.5262C21.3437 36.5288 21.3727 36.5299 21.4013 36.5299C21.9042 36.5299 22.3325 36.1451 22.3771 35.6345C22.4244 35.095 22.0251 34.6191 21.4856 34.572L20.5086 34.4865L20.5954 33.4935C20.6407 32.9757 20.4818 32.4713 20.1476 32.0733C19.8136 31.6752 19.3445 31.4311 18.8268 31.3858L18.8107 31.3845L18.8789 30.6047C18.9261 30.0651 18.5268 29.5894 17.9873 29.5422C17.4462 29.4942 16.9718 29.8944 16.9248 30.4339L16.8567 31.2136L16.8409 31.2122C16.3224 31.1665 15.8187 31.3259 15.4207 31.6598C15.0225 31.9939 14.7784 32.463 14.7332 32.9808L14.6464 33.9738L13.6692 33.8882C13.1299 33.8401 12.6538 34.2402 12.6068 34.7798C12.5595 35.3193 12.9588 35.7951 13.4983 35.8422L14.4754 35.9278L14.3886 36.9207C14.3701 37.1319 14.3874 37.3404 14.4349 37.5409C14.0388 37.8821 13.7693 38.371 13.7203 38.9317L13.6449 39.7933L12.6678 39.7078C12.129 39.6598 11.6525 40.0597 11.6054 40.5994C11.5582 41.1389 11.9574 41.6147 12.4969 41.6618L13.474 41.7474L13.3986 42.609C13.3755 42.8726 13.4034 43.1324 13.4761 43.3786C13.0326 43.753 12.7604 44.2773 12.7098 44.8556L12.6434 45.6128L11.6662 45.5273C11.1279 45.4787 10.6509 45.8792 10.6038 46.4189C10.5566 46.9584 10.9558 47.4342 11.4953 47.4813L12.4725 47.5669L12.4061 48.324C12.3847 48.5675 12.4061 48.8078 12.463 49.0384H7.06409L9.866 38.8097C10.492 36.5248 10.5145 34.1035 9.93115 31.8071L9.57913 30.4219C9.13168 28.6607 8.19625 27.0928 6.87394 25.8877C5.3776 24.5237 4.51927 22.5543 4.51927 20.4841V15.3144C4.51927 7.95132 10.2873 1.96121 17.3769 1.96121H29.5136C34.8993 1.96121 39.2811 6.51555 39.2811 12.1135V13.0412C39.2811 13.1432 39.2969 13.2445 39.3282 13.3416L40.3357 16.4725C40.7578 17.7834 40.6578 19.2432 40.0615 20.4783Z" fill="#E5C1AD"/>
<path d="M4.90377 34.3269H0.980754C0.439178 34.3269 0 34.7661 0 35.3077C0 35.8492 0.439178 36.2884 0.980754 36.2884H4.90387C5.44555 36.2884 5.88462 35.8492 5.88462 35.3077C5.88452 34.7661 5.44535 34.3269 4.90377 34.3269Z" fill="#E5C1AD"/>
<path d="M5.59977 30.7067L3.63826 28.7319C3.25636 28.3474 2.6355 28.3455 2.2513 28.7272C1.86691 29.109 1.86492 29.73 2.24662 30.1142L4.20813 32.089C4.39988 32.2821 4.65179 32.3786 4.904 32.3786C5.15392 32.3786 5.40394 32.2837 5.59519 32.0938C5.97938 31.712 5.98147 31.091 5.59977 30.7067Z" fill="#E5C1AD"/>
<path d="M5.59724 38.5373C5.21415 38.1544 4.59338 38.1544 4.21018 38.5373L2.24867 40.4988C1.86568 40.8818 1.86568 41.5029 2.24867 41.8859C2.44022 42.0773 2.69124 42.1731 2.94215 42.1731C3.19317 42.1731 3.44409 42.0773 3.63564 41.8859L5.59714 39.9244C5.98024 39.5413 5.98024 38.9203 5.59724 38.5373Z" fill="#E5C1AD"/>
</svg>
