<svg width="31" height="32" viewBox="0 0 31 32" fill="none" xmlns="http://www.w3.org/2000/svg">
<g clip-path="url(#clip0)">
<path d="M14.9746 27.27C14.9746 28.6919 13.822 29.8445 12.4002 29.8445C10.9783 29.8445 9.8257 28.6919 9.8257 27.27C9.8257 25.8482 10.9783 24.6955 12.4002 24.6955C13.822 24.6955 14.9746 25.8482 14.9746 27.27ZM22.8244 24.6955C21.4025 24.6955 20.2499 25.8482 20.2499 27.27C20.2499 28.6919 21.4025 29.8445 22.8244 29.8445C24.2462 29.8445 25.3989 28.6919 25.3989 27.27C25.3989 25.8482 24.2462 24.6955 22.8244 24.6955ZM30.8158 12.6099L27.6479 22.0254C27.6479 22.0254 27.3857 23.4227 26.0496 23.4227C24.7136 23.4227 11.6479 23.4227 10.0535 23.4227C8.45903 23.4227 8.39202 21.6712 8.39202 21.6712C8.39202 21.6712 6.69231 9.06113 6.60808 8.29931C6.52385 7.5375 5.54959 6.97284 5.54959 6.97284L1.35769 5.01472C-0.937319 3.81457 0.105864 1.53104 1.35769 2.05551C6.67316 4.56298 9.14236 5.79759 9.30124 6.78526C9.46202 7.77485 9.74148 10.1579 9.74148 10.1579V10.1732C9.77402 10.1637 9.79699 10.1579 9.79699 10.1579C9.79699 10.1579 26.0975 10.1579 29.3898 10.1579C31.7556 10.1579 30.8158 12.6137 30.8158 12.6099ZM26.2334 17.8526L26.2009 17.8545H10.6928L11.0124 20.3888H25.4793L26.2334 17.8526ZM27.7436 12.742H10.0516L10.3923 15.4504C13.786 15.4504 23.724 15.4504 26.9435 15.4504L27.7436 12.742Z" fill="#F4364C"/>
</g>
<defs>
<clipPath id="clip0">
<rect y="0.411621" width="31" height="31" fill="white"/>
</clipPath>
</defs>
</svg>
