<svg width="11" height="11" viewBox="0 0 11 11" fill="none" xmlns="http://www.w3.org/2000/svg">
<g opacity="0.5">
<path d="M10.9947 8.67986C11.0181 8.85843 10.9636 9.0137 10.8317 9.14566L9.28294 10.6827C9.21307 10.7604 9.12187 10.8264 9.00931 10.8807C8.89674 10.9351 8.78613 10.97 8.67748 10.9855C8.66972 10.9855 8.64637 10.9875 8.60754 10.9914C8.56878 10.9952 8.51832 10.9972 8.45621 10.9972C8.30867 10.9972 8.06993 10.972 7.73999 10.9215C7.41005 10.871 7.00638 10.7468 6.52898 10.5489C6.05146 10.3509 5.50999 10.0539 4.90447 9.65803C4.29895 9.26216 3.65458 8.7187 2.97141 8.02775C2.42799 7.49208 1.97771 6.9797 1.6206 6.49063C1.26349 6.00153 0.976252 5.54932 0.75888 5.13398C0.541489 4.71865 0.37846 4.34213 0.269774 4.00443C0.161088 3.66672 0.0873369 3.3756 0.0485205 3.13106C0.0097041 2.88651 -0.00582246 2.69437 0.00194082 2.55463C0.0097041 2.41489 0.0135857 2.33726 0.0135857 2.32173C0.0291123 2.21305 0.0640471 2.10242 0.11839 1.98985C0.172733 1.87729 0.238721 1.78607 0.316354 1.7162L1.86513 0.167423C1.97381 0.0587375 2.09803 0.00439453 2.23777 0.00439453C2.33869 0.00439453 2.42797 0.0335068 2.5056 0.0917314C2.58323 0.149956 2.64922 0.221766 2.70356 0.307162L3.94957 2.67108C4.01944 2.79529 4.03885 2.93115 4.00779 3.07865C3.97674 3.22616 3.91075 3.35037 3.80983 3.45129L3.23923 4.02189C3.2237 4.03742 3.21012 4.06265 3.19847 4.09758C3.18683 4.13252 3.181 4.16163 3.181 4.18492C3.21206 4.34795 3.28193 4.53427 3.39061 4.74388C3.48377 4.9302 3.62739 5.15727 3.82148 5.42511C4.01556 5.69294 4.29115 6.00151 4.64826 6.35086C4.99761 6.70801 5.30814 6.98551 5.57986 7.18351C5.85152 7.38139 6.07867 7.52701 6.26111 7.62017C6.44354 7.71333 6.58328 7.76962 6.6803 7.78897L6.82583 7.8181C6.84135 7.8181 6.86664 7.81226 6.90154 7.80063C6.93647 7.78897 6.9617 7.7754 6.97725 7.75986L7.64099 7.08445C7.78081 6.96026 7.94376 6.89815 8.1301 6.89815C8.26211 6.89815 8.36686 6.92142 8.44449 6.96802H8.45612L10.7036 8.29554C10.8667 8.39654 10.9637 8.5246 10.9947 8.67986Z" fill="#4E4E4E"/>
</g>
</svg>
