<svg width="31" height="29" viewBox="0 0 31 29" fill="none" xmlns="http://www.w3.org/2000/svg">
<path d="M14.9746 26.27C14.9746 27.6919 13.822 28.8445 12.4002 28.8445C10.9783 28.8445 9.8257 27.6919 9.8257 26.27C9.8257 24.8482 10.9783 23.6955 12.4002 23.6955C13.822 23.6955 14.9746 24.8482 14.9746 26.27ZM22.8244 23.6955C21.4025 23.6955 20.2499 24.8482 20.2499 26.27C20.2499 27.6919 21.4025 28.8445 22.8244 28.8445C24.2462 28.8445 25.3989 27.6919 25.3989 26.27C25.3989 24.8482 24.2462 23.6955 22.8244 23.6955ZM30.8158 11.6099L27.6479 21.0254C27.6479 21.0254 27.3857 22.4227 26.0497 22.4227C24.7136 22.4227 11.6479 22.4227 10.0535 22.4227C8.45903 22.4227 8.39202 20.6712 8.39202 20.6712C8.39202 20.6712 6.69231 8.06113 6.60808 7.29931C6.52385 6.5375 5.54959 5.97284 5.54959 5.97284L1.35769 4.01472C-0.937319 2.81457 0.105864 0.531039 1.35769 1.05551C6.67316 3.56298 9.14236 4.79759 9.30124 5.78526C9.46202 6.77485 9.74148 9.15791 9.74148 9.15791V9.17322C9.77402 9.16365 9.79698 9.15791 9.79698 9.15791C9.79698 9.15791 26.0975 9.15791 29.3898 9.15791C31.7556 9.15791 30.8158 11.6137 30.8158 11.6099ZM26.2334 16.8526L26.2009 16.8545H10.6928L11.0124 19.3888H25.4793L26.2334 16.8526ZM27.7436 11.742H10.0516L10.3923 14.4504C13.786 14.4504 23.724 14.4504 26.9435 14.4504L27.7436 11.742Z" fill="url(#paint03_linear)"/>
<defs>
<linearGradient id="paint03_linear" x1="25.3879" y1="4.58188" x2="6.87833" y2="26.4932" gradientUnits="userSpaceOnUse">
<stop stop-color="#3B93FF"/>
<stop offset="1" stop-color="#0072FF"/>
</linearGradient>
</defs>
</svg>
