<svg width="14" height="14" viewBox="0 0 14 14" fill="none" xmlns="http://www.w3.org/2000/svg">
<path d="M6.99988 0C3.134 0 0 3.13409 0 6.99988C0 10.8657 3.134 14 6.99988 14C10.8658 14 14 10.8657 14 6.99988C14 3.13409 10.8658 0 6.99988 0ZM10.0261 8.33126H7.05845C7.04842 8.33126 7.03908 8.32883 7.02914 8.32846C7.0192 8.32893 7.00992 8.33126 6.99984 8.33126C6.73248 8.33126 6.51571 8.11449 6.51571 7.84713V2.905C6.51571 2.63764 6.73248 2.42087 6.99984 2.42087C7.26719 2.42087 7.48396 2.63764 7.48396 2.905V7.363H10.0259C10.2933 7.363 10.5101 7.57977 10.5101 7.84713C10.5101 8.11449 10.2935 8.33126 10.0261 8.33126Z" fill="#FB7429"/>
</svg>
