<svg width="11" height="11" viewBox="0 0 11 11" fill="none" xmlns="http://www.w3.org/2000/svg">
<path d="M10.2043 0.552907C9.67128 0.0199119 8.80712 0.0199135 8.27413 0.552908L5.37879 3.44825L2.48356 0.553026C1.95057 0.0200312 1.08641 0.020031 0.55342 0.553025C0.0204251 1.08602 0.0204259 1.95018 0.553421 2.48317L3.44864 5.37839L0.553557 8.27348C0.0205617 8.80648 0.0205614 9.67063 0.553556 10.2036C1.08655 10.7366 1.95071 10.7366 2.4837 10.2036L5.37879 7.30854L8.27399 10.2037C8.80699 10.7367 9.67114 10.7367 10.2041 10.2037C10.7371 9.67075 10.7371 8.80659 10.2041 8.2736L7.30893 5.37839L10.2043 2.48305C10.7373 1.95006 10.7373 1.0859 10.2043 0.552907Z" fill="#F4364C"/>
</svg>
