<svg width="18" height="12" viewBox="0 0 18 12" fill="none" xmlns="http://www.w3.org/2000/svg">
<path d="M14.786 5.25984C14.4219 2.3915 11.966 0.166504 8.99935 0.166504C6.70268 0.166504 4.70768 1.509 3.79685 3.62484C2.00685 4.15984 0.666016 5.84984 0.666016 7.6665C0.666016 9.96401 2.53518 11.8332 4.83268 11.8332H13.9993C15.8377 11.8332 17.3327 10.3382 17.3327 8.49984C17.3314 7.75285 17.0799 7.02782 16.6183 6.44053C16.1566 5.85324 15.5116 5.43755 14.786 5.25984ZM9.83268 7.6665V10.1665H8.16602V7.6665H5.66602L8.99935 3.49984L12.3327 7.6665H9.83268Z" fill="url(#paint20_linear)"/>
<defs>
<linearGradient id="paint20_linear" x1="14.3154" y1="1.67512" x2="7.09776" y2="12.6471" gradientUnits="userSpaceOnUse">
<stop stop-color="#3B93FF"/>
<stop offset="1" stop-color="#0072FF"/>
</linearGradient>
</defs>
</svg>
