<svg width="23" height="23" viewBox="0 0 23 23" fill="none" xmlns="http://www.w3.org/2000/svg">
<path d="M19.1667 4.06103V1.91667C19.1653 0.858667 18.308 0.00134167 17.25 0H1.91667C0.858667 0.00134167 0.00134167 0.858667 0 1.91667V10.35C0.00297084 11.3289 0.745008 12.1476 1.71887 12.2469L3.15982 15.9874C3.54047 16.9751 4.64964 17.4671 5.6374 17.0869L14.6357 13.6206C14.0139 15.2447 14.1908 17.0666 15.1131 18.5408L15.3333 18.893V22.6167C15.3333 22.8285 15.5049 23 15.7167 23H22.6167C22.8285 23 23 22.8285 23 22.6167V9.96331C22.9964 8.63765 22.4686 7.36748 21.5314 6.42994L19.1667 4.06103ZM19.1667 6.35356L20.3301 9.37365C20.5581 9.96647 20.2626 10.6317 19.6699 10.8598L19.0049 11.1167C19.1111 10.875 19.1661 10.6137 19.1667 10.35V6.35356ZM0.766667 10.35V1.91667C0.766667 1.28167 1.28167 0.766667 1.91667 0.766667H17.25C17.885 0.766667 18.4 1.28167 18.4 1.91667V4.35313H18.3966L18.4 4.36185V10.35C18.397 10.4169 18.3883 10.4832 18.3739 10.5486L14.8626 7.03685C14.0733 6.26578 12.815 6.25983 12.0187 7.02286C11.2221 7.78636 11.1743 9.0437 11.9109 9.86499L13.4079 11.5H1.91667C1.28167 11.5 0.766667 10.985 0.766667 10.35ZM5.67755 12.2667L2.95167 13.3161L2.5484 12.2667H5.67755ZM5.36168 16.3713C4.76905 16.5998 4.10349 16.3043 3.87512 15.7117L3.22843 14.03L7.80428 12.2667V12.2644H14.1105L14.6087 12.8076L5.36168 16.3713ZM22.2333 22.2333H16.1V19.1667H22.2333V22.2333ZM22.2333 18.4H15.9294L15.7631 18.1343C14.8285 16.6407 14.7913 14.7541 15.6661 13.225C15.7489 13.0803 15.7285 12.8986 15.6158 12.7757L12.4745 9.34873C12.0061 8.83603 12.0324 8.04339 12.5339 7.56317C13.0356 7.08285 13.8287 7.09071 14.3205 7.58061L20.429 13.6877L20.971 13.1456L19.5527 11.7273L19.946 11.574C20.9329 11.1932 21.4247 10.085 21.045 9.09755L19.7475 5.72844L20.9893 6.97283C21.7828 7.76614 22.2303 8.8412 22.2333 9.96331V18.4Z" fill="#FB7429"/>
<path d="M4.36987 5.36654C4.92034 5.36654 5.36654 4.92034 5.36654 4.36987V2.52987C5.36654 1.9794 4.92034 1.5332 4.36987 1.5332H2.52987C1.9794 1.5332 1.5332 1.9794 1.5332 2.52987V4.36987C1.5332 4.92034 1.9794 5.36654 2.52987 5.36654H4.36987ZM2.29987 4.36987V3.8332H3.06654V3.06654H2.29987V2.52987C2.29987 2.40289 2.40289 2.29987 2.52987 2.29987H4.36987C4.49685 2.29987 4.59987 2.40289 4.59987 2.52987V3.06654H3.8332V3.8332H4.59987V4.36987C4.59987 4.49685 4.49685 4.59987 4.36987 4.59987H2.52987C2.40289 4.59987 2.29987 4.49685 2.29987 4.36987Z" fill="#FB7429"/>
<path d="M1.9165 6.5166H3.44984V7.28327H1.9165V6.5166Z" fill="#FB7429"/>
<path d="M1.9165 8.81689H3.44984V9.58356H1.9165V8.81689Z" fill="#FB7429"/>
<path d="M8.81689 8.81689H10.3502V9.58356H8.81689V8.81689Z" fill="#FB7429"/>
<path d="M4.2168 6.5166H5.75013V7.28327H4.2168V6.5166Z" fill="#FB7429"/>
<path d="M6.5166 6.5166H8.04994V7.28327H6.5166V6.5166Z" fill="#FB7429"/>
<path d="M8.81689 6.5166H10.3502V7.28327H8.81689V6.5166Z" fill="#FB7429"/>
<path d="M16.0999 1.9165H16.8665V3.0665H16.0999V1.9165Z" fill="#FB7429"/>
<path d="M14.5669 1.9165H15.3336V3.0665H14.5669V1.9165Z" fill="#FB7429"/>
<path d="M13.0332 1.9165H13.7999V3.0665H13.0332V1.9165Z" fill="#FB7429"/>
<path d="M11.5 1.9165H12.2667V3.0665H11.5V1.9165Z" fill="#FB7429"/>
<path d="M16.8667 19.9331H17.6334V20.6998H16.8667V19.9331Z" fill="#FB7429"/>
</svg>
