<svg width="19" height="19" viewBox="0 0 19 19" fill="none" xmlns="http://www.w3.org/2000/svg">
<path d="M9.5 0.296875C4.41761 0.296875 0.296875 4.4191 0.296875 9.5C0.296875 14.5839 4.41761 18.7031 9.5 18.7031C14.5824 18.7031 18.7031 14.5839 18.7031 9.5C18.7031 4.4191 14.5824 0.296875 9.5 0.296875ZM9.5 4.37891C10.3608 4.37891 11.0586 5.07671 11.0586 5.9375C11.0586 6.79829 10.3608 7.49609 9.5 7.49609C8.63921 7.49609 7.94141 6.79829 7.94141 5.9375C7.94141 5.07671 8.63921 4.37891 9.5 4.37891ZM11.5781 13.8047C11.5781 14.0506 11.3787 14.25 11.1328 14.25H7.86719C7.62126 14.25 7.42188 14.0506 7.42188 13.8047V12.9141C7.42188 12.6681 7.62126 12.4688 7.86719 12.4688H8.3125V10.0938H7.86719C7.62126 10.0938 7.42188 9.89436 7.42188 9.64844V8.75781C7.42188 8.51189 7.62126 8.3125 7.86719 8.3125H10.2422C10.4881 8.3125 10.6875 8.51189 10.6875 8.75781V12.4688H11.1328C11.3787 12.4688 11.5781 12.6681 11.5781 12.9141V13.8047Z" fill="url(#paint0_linear)"/>
<defs>
<linearGradient id="paint0_linear" x1="15.371" y1="2.67699" x2="2.99434" y2="15.847" gradientUnits="userSpaceOnUse">
<stop stop-color="#3B93FF"/>
<stop offset="1" stop-color="#0072FF"/>
</linearGradient>
</defs>
</svg>
