<svg width="15" height="15" viewBox="0 0 15 15" fill="none" xmlns="http://www.w3.org/2000/svg">
<g opacity="0.5">
<path d="M14.2497 10.875V4.125C14.2497 3.5025 13.7472 3 13.1247 3H2.61719C1.99469 3 1.49219 3.5025 1.49219 4.125V10.875C1.49219 11.4975 1.99469 12 2.61719 12H13.1247C13.7472 12 14.2497 11.4975 14.2497 10.875ZM13.2672 4.0425C13.5147 4.29 13.3797 4.545 13.2447 4.6725L10.1997 7.4625L13.1247 10.5075C13.2147 10.6125 13.2747 10.7775 13.1697 10.89C13.0722 11.01 12.8472 11.0025 12.7497 10.9275L9.47219 8.13L7.86719 9.5925L6.26969 8.13L2.99219 10.9275C2.89469 11.0025 2.66969 11.01 2.57219 10.89C2.46719 10.7775 2.52719 10.6125 2.61719 10.5075L5.54219 7.4625L2.49719 4.6725C2.36219 4.545 2.22719 4.29 2.47469 4.0425C2.72219 3.795 2.97719 3.915 3.18719 4.095L7.86719 7.875L12.5547 4.095C12.7647 3.915 13.0197 3.795 13.2672 4.0425Z" fill="#4E4E4E"/>
</g>
</svg>
