<svg width="16" height="15" viewBox="0 0 16 15" fill="none" xmlns="http://www.w3.org/2000/svg">
<path fill-rule="evenodd" clip-rule="evenodd" d="M15.5001 0H15.74C15.809 0 15.8751 0.0273929 15.9239 0.0761523C15.9726 0.124912 16 0.191044 16 0.26V0.489659C16.0001 0.493102 16.0001 0.496549 16.0001 0.5V1.35C16.0015 1.47053 15.9787 1.59012 15.9332 1.70174C15.8877 1.81336 15.8204 1.91476 15.7351 2L10.0001 7.75V14.5L6.00012 12.89V7.79L0.265122 1.97C0.181242 1.88687 0.114642 1.78797 0.0691605 1.67898C0.0236791 1.57 0.000215561 1.45309 0.00012207 1.335V1.13727C1.18068e-05 1.13152 -2.38253e-05 1.12576 1.54489e-05 1.12V0.26C-0.000178981 0.194373 0.0244517 0.1311 0.0689654 0.0828769C0.113479 0.0346537 0.174583 0.00504797 0.240015 0H0.500122H15.5001Z" fill="#E31E25"/>
</svg>
