<svg width="16" height="14" viewBox="0 0 16 14" fill="none" xmlns="http://www.w3.org/2000/svg">
<path d="M14.7889 6.89071L8.35293 0.45946C8.30659 0.413029 8.25155 0.376192 8.19095 0.351059C8.13036 0.325925 8.0654 0.312988 7.9998 0.312988C7.93421 0.312988 7.86925 0.325925 7.80866 0.351059C7.74806 0.376192 7.69302 0.413029 7.64668 0.45946L1.21074 6.89071C1.02324 7.07821 0.916992 7.3329 0.916992 7.59852C0.916992 8.15008 1.36543 8.59852 1.91699 8.59852H2.59512V13.1876C2.59512 13.4641 2.81855 13.6876 3.09512 13.6876H6.9998V10.1876H8.7498V13.6876H12.9045C13.1811 13.6876 13.4045 13.4641 13.4045 13.1876V8.59852H14.0826C14.3482 8.59852 14.6029 8.49383 14.7904 8.30477C15.1795 7.91415 15.1795 7.28133 14.7889 6.89071Z" fill="#A3A4A7"/>
</svg>
