<svg width="35" height="35" viewBox="0 0 35 35" fill="none" xmlns="http://www.w3.org/2000/svg">
<path d="M17.5009 0C7.83449 0 9.49573e-08 7.83449 9.49573e-08 17.4991C-0.000239326 19.7974 0.452272 22.0733 1.33169 24.1967C2.21111 26.3201 3.50021 28.2495 5.12536 29.8746C6.75052 31.4998 8.6799 32.7889 10.8033 33.6683C12.9267 34.5477 15.2026 35.0002 17.5009 35C27.1637 35 35 27.1655 35 17.4991C35 7.83449 27.1637 0 17.5009 0ZM19.1342 6.3179C20.8403 6.3179 21.3416 7.30769 21.3416 8.43966C21.3416 9.85235 20.2114 11.1593 18.2811 11.1593C16.6661 11.1593 15.8968 10.3482 15.9442 9.00474C15.9442 7.87277 16.8903 6.3179 19.1342 6.3179ZM14.763 27.9803C13.5964 27.9803 12.7452 27.2712 13.56 24.1633L14.8961 18.6493C15.1276 17.767 15.1659 17.4134 14.8961 17.4134C14.5479 17.4134 13.0332 18.0222 12.14 18.6238L11.5585 17.6704C14.393 15.3026 17.6522 13.9136 19.0467 13.9136C20.2133 13.9136 20.4065 15.2917 19.825 17.4134L18.2938 23.21C18.0222 24.2344 18.1389 24.588 18.4105 24.588C18.7605 24.588 19.9052 24.1651 21.0317 23.2774L21.6916 24.1633C18.9336 26.9194 15.9278 27.9803 14.763 27.9803Z" fill="#B9B9B9"/>
</svg>
