<svg width="23" height="23" viewBox="0 0 23 23" fill="none" xmlns="http://www.w3.org/2000/svg">
<path d="M11.4995 13.8022C12.7683 13.8022 13.8027 12.7697 13.8027 11.5C13.8027 10.9988 13.6387 10.536 13.3673 10.158C12.949 9.57806 12.269 9.19775 11.5009 9.19775C10.7324 9.19775 10.0529 9.5776 9.63367 10.1576C9.3613 10.5355 9.19871 10.9983 9.19824 11.4995C9.19685 12.7692 10.2303 13.8022 11.4995 13.8022Z" fill="#F4364C"/>
<path d="M16.527 8.68379V6.754V6.4668L16.2384 6.46772L14.3096 6.47375L14.317 8.6912L16.527 8.68379Z" fill="#F4364C"/>
<path d="M11.5 0C5.15893 0 0 5.15893 0 11.5C0 17.8406 5.15893 23 11.5 23C17.8406 23 23 17.8406 23 11.5C23 5.15893 17.8415 0 11.5 0ZM18.0403 10.158V15.5129C18.0403 16.9077 16.9063 18.0412 15.5124 18.0412H7.48755C6.09325 18.0412 4.95974 16.9077 4.95974 15.5129V10.158V7.48802C4.95974 6.09371 6.09325 4.9602 7.48755 4.9602H15.512C16.9063 4.9602 18.0403 6.09371 18.0403 7.48802V10.158Z" fill="#F4364C"/>
<path d="M15.0775 11.5002C15.0775 13.4721 13.4729 15.0776 11.5 15.0776C9.52717 15.0776 7.92302 13.4721 7.92302 11.5002C7.92302 11.0258 8.01752 10.5723 8.18613 10.1582H6.23364V15.5131C6.23364 16.2051 6.79553 16.7656 7.48713 16.7656H15.5116C16.2022 16.7656 16.765 16.2051 16.765 15.5131V10.1582H14.8116C14.9816 10.5723 15.0775 11.0258 15.0775 11.5002Z" fill="#F4364C"/>
</svg>
