<svg width="24" height="24" viewBox="0 0 24 24" fill="none" xmlns="http://www.w3.org/2000/svg">
<g clip-path="url(#clip0)">
<path d="M7.87399 16.4282C8.8624 17.8218 9.84921 19.0682 10.5032 19.871C10.5984 19.9878 10.6876 20.0962 10.774 20.2006H8.80043C8.5795 20.2006 8.40044 20.3796 8.40044 20.6006C8.40044 20.8215 8.5795 21.0005 8.80043 21.0005H15.2004C15.4213 21.0005 15.6004 20.8215 15.6004 20.6006C15.6004 20.3796 15.4213 20.2006 15.2004 20.2006H13.2268C13.3132 20.0962 13.4024 19.9878 13.498 19.871C14.1516 19.071 15.138 17.8218 16.1268 16.4282C17.1079 15.0733 17.9909 13.65 18.7692 12.1694C19.586 10.5654 20.0005 9.2338 20.0005 8.2114C20.0032 6.08697 19.1602 4.04884 17.6576 2.54696C17.5573 2.4429 17.4086 2.40108 17.2687 2.4376C17.1288 2.47411 17.0195 2.58324 16.9828 2.72307C16.9461 2.8629 16.9877 3.01163 17.0916 3.11213C18.4441 4.4642 19.2028 6.29894 19.2004 8.21136C19.2004 9.10658 18.8156 10.3161 18.0564 11.8062C17.2957 13.2525 16.4327 14.6427 15.474 15.9662C14.4989 17.3418 13.524 18.5742 12.8781 19.3662C12.6633 19.6294 12.47 19.8622 12.3052 20.059C12.2283 20.1469 12.1172 20.1972 12.0005 20.1972C11.8837 20.1972 11.7726 20.1468 11.6957 20.059C11.5309 19.8622 11.3377 19.6294 11.1229 19.3662C10.4769 18.5746 9.50205 17.3422 8.52686 15.9662C7.56822 14.6427 6.7052 13.2525 5.94446 11.8062C5.18448 10.3161 4.80047 9.10658 4.80047 8.21136C4.80024 5.31405 6.53293 2.69757 9.20051 1.56694C10.9929 0.815343 13.0121 0.815343 14.8045 1.56694C14.9362 1.62272 15.0875 1.60411 15.2017 1.518C15.3158 1.43194 15.3753 1.2915 15.3578 1.14961C15.3404 1.00772 15.2485 0.885937 15.1169 0.830156C11.0435 -0.887913 6.34862 1.02056 4.62929 5.09336C4.21233 6.07989 3.99849 7.14035 4.0005 8.21136C4.0005 9.23375 4.41493 10.5654 5.23173 12.1714C6.00995 13.6514 6.89303 15.0739 7.87399 16.4282Z" fill="#FB7429"/>
<path d="M12 4.60026C12.2209 4.60026 12.4 4.4212 12.4 4.20028C12.4 3.97936 12.2209 3.80029 12 3.80029C10.0917 3.80025 8.44911 5.14828 8.07678 7.01992C7.70445 8.89155 8.70613 10.7655 10.4691 11.4958C12.2322 12.2262 14.2656 11.6093 15.3258 10.0226C16.386 8.43597 16.1778 6.32129 14.8284 4.97189C14.7279 4.86792 14.5793 4.8262 14.4394 4.86281C14.2996 4.89942 14.1903 5.00864 14.1537 5.14847C14.1171 5.28835 14.1588 5.43703 14.2628 5.53749C15.3423 6.61698 15.509 8.30865 14.6609 9.57803C13.8128 10.8474 12.186 11.3409 10.7756 10.7568C9.36519 10.1726 8.56381 8.67344 8.86156 7.1761C9.15932 5.67877 10.4734 4.60031 12 4.60026Z" fill="#FB7429"/>
<path d="M23.8494 22.029L21.3894 17.6289C21.167 17.238 20.7508 16.9977 20.301 17.0005H17.4502C17.2293 17.0005 17.0502 17.1796 17.0502 17.4005C17.0502 17.6214 17.2293 17.8005 17.4502 17.8005H20.301C20.4611 17.7974 20.6105 17.8809 20.6918 18.0189L23.151 22.4189C23.218 22.5334 23.2166 22.6754 23.1474 22.7885C23.0657 22.9235 22.918 23.0044 22.7602 23.0005H1.24016C1.08257 23.0043 0.935003 22.9234 0.853347 22.7885C0.784159 22.6754 0.782799 22.5334 0.849737 22.4189L3.30895 18.0189C3.39009 17.8809 3.53934 17.7974 3.69933 17.8005H6.55013C6.77106 17.8005 6.95012 17.6214 6.95012 17.4005C6.95012 17.1796 6.77106 17.0005 6.55013 17.0005H3.69937C3.24937 16.9976 2.83284 17.2378 2.61018 17.6289L0.150547 22.029C-0.0545318 22.3912 -0.0497974 22.8356 0.162969 23.1934C0.387126 23.5744 0.798175 23.8061 1.24016 23.8006H22.7602C23.2021 23.806 23.613 23.5743 23.837 23.1934C24.0498 22.8355 24.0545 22.3912 23.8494 22.029Z" fill="#FB7429"/>
<path d="M19.6002 19.0005H18.0002C17.9213 19.0006 17.8441 19.024 17.7782 19.0677L16.5782 19.8677C16.3944 19.9903 16.3448 20.2387 16.4674 20.4225C16.59 20.6063 16.8384 20.6559 17.0222 20.5334L18.1202 19.8006H19.6002C19.8212 19.8006 20.0002 19.6214 20.0002 19.4006C20.0002 19.1796 19.8212 19.0005 19.6002 19.0005Z" fill="#FB7429"/>
<path d="M17.2002 21.8004C17.2002 22.0213 17.3793 22.2004 17.6002 22.2004H20.8002C21.0211 22.2004 21.2002 22.0213 21.2002 21.8004C21.2002 21.5795 21.0211 21.4004 20.8002 21.4004H17.6002C17.3793 21.4004 17.2002 21.5795 17.2002 21.8004Z" fill="#FB7429"/>
<path d="M7.19998 20.6005C7.37633 20.6008 7.532 20.4855 7.58323 20.3167C7.63447 20.1479 7.56912 19.9656 7.4224 19.8677L6.2224 19.0677C6.15649 19.0239 6.0791 19.0005 5.99998 19.0005H4.39999C4.17906 19.0005 4 19.1796 4 19.4005C4 19.6214 4.17911 19.8005 4.39999 19.8005H5.87998L6.9792 20.5333C7.04459 20.577 7.12142 20.6003 7.19998 20.6005Z" fill="#FB7429"/>
<path d="M3.20028 21.4004C2.97936 21.4004 2.80029 21.5795 2.80029 21.8004C2.80029 22.0213 2.97936 22.2004 3.20028 22.2004H6.40031C6.62123 22.2004 6.80029 22.0213 6.80029 21.8004C6.80029 21.5795 6.62123 21.4004 6.40031 21.4004H3.20028Z" fill="#FB7429"/>
</g>
<defs>
<clipPath id="clip0">
<rect width="24" height="24" fill="white"/>
</clipPath>
</defs>
</svg>
