<svg width="21" height="14" viewBox="0 0 21 14" fill="none" xmlns="http://www.w3.org/2000/svg">
<path d="M21 12.25V1.75C21 0.781667 20.1728 0 19.1481 0H1.85185C0.82716 0 0 0.781667 0 1.75V12.25C0 13.2183 0.82716 14 1.85185 14H19.1481C20.1728 14 21 13.2183 21 12.25ZM19.3827 1.62167C19.7901 2.00667 19.5679 2.40333 19.3457 2.60167L14.3333 6.94167L19.1481 11.6783C19.2963 11.8417 19.3951 12.0983 19.2222 12.2733C19.0617 12.46 18.6914 12.4483 18.5309 12.3317L13.1358 7.98L10.4938 10.255L7.8642 7.98L2.46914 12.3317C2.30864 12.4483 1.93827 12.46 1.77778 12.2733C1.60494 12.0983 1.7037 11.8417 1.85185 11.6783L6.66667 6.94167L1.65432 2.60167C1.4321 2.40333 1.20988 2.00667 1.61728 1.62167C2.02469 1.23667 2.44444 1.42333 2.79012 1.70333L10.4938 7.58333L18.2099 1.70333C18.5556 1.42333 18.9753 1.23667 19.3827 1.62167Z" fill="#F4364C"/>
</svg>
