<svg width="31" height="21" viewBox="0 0 31 21" fill="none" xmlns="http://www.w3.org/2000/svg">
<path d="M31 18.375V2.625C31 1.1725 29.779 0 28.2663 0H2.73369C1.22105 0 0 1.1725 0 2.625V18.375C0 19.8275 1.22105 21 2.73369 21H28.2663C29.779 21 31 19.8275 31 18.375ZM28.6126 2.4325C29.214 3.01 28.8859 3.605 28.5579 3.9025L21.1587 10.4125L28.2663 17.5175C28.485 17.7625 28.6308 18.1475 28.3757 18.41C28.1387 18.69 27.592 18.6725 27.3551 18.4975L19.3909 11.97L15.4909 15.3825L11.6091 11.97L3.64491 18.4975C3.408 18.6725 2.86126 18.69 2.62434 18.41C2.36919 18.1475 2.51499 17.7625 2.73369 17.5175L9.84127 10.4125L2.44209 3.9025C2.11405 3.605 1.78601 3.01 2.38742 2.4325C2.98883 1.855 3.60847 2.135 4.11875 2.555L15.4909 11.375L26.8812 2.555C27.3915 2.135 28.0112 1.855 28.6126 2.4325Z" fill="#F4364C"/>
</svg>
