<svg width="17" height="25" viewBox="0 0 17 25" fill="none" xmlns="http://www.w3.org/2000/svg">
<path d="M17 8.82353C17 3.95588 13.1892 0 8.5 0C3.81083 0 0 3.95588 0 8.82353C0 15.4412 8.5 25 8.5 25C8.5 25 17 15.4412 17 8.82353ZM5.66667 8.82353C5.66667 7.20588 6.94167 5.88235 8.5 5.88235C10.0583 5.88235 11.3333 7.20588 11.3333 8.82353C11.3333 9.60358 11.0348 10.3517 10.5035 10.9033C9.97212 11.4548 9.25145 11.7647 8.5 11.7647C7.74855 11.7647 7.02788 11.4548 6.49653 10.9033C5.96518 10.3517 5.66667 9.60358 5.66667 8.82353Z" fill="#F4364C"/>
</svg>
