<svg width="28" height="40" viewBox="0 0 28 40" fill="none" xmlns="http://www.w3.org/2000/svg">
<path d="M28 14.1176C28 6.32941 21.7233 0 14 0C6.27667 0 0 6.32941 0 14.1176C0 24.7059 14 40 14 40C14 40 28 24.7059 28 14.1176ZM9.33333 14.1176C9.33333 11.5294 11.4333 9.41176 14 9.41176C16.5667 9.41176 18.6667 11.5294 18.6667 14.1176C18.6667 15.3657 18.175 16.5627 17.2998 17.4452C16.4247 18.3277 15.2377 18.8235 14 18.8235C12.7623 18.8235 11.5753 18.3277 10.7002 17.4452C9.825 16.5627 9.33333 15.3657 9.33333 14.1176Z" fill="#E31E25"/>
</svg>
