<svg width="24" height="24" viewBox="0 0 24 24" fill="none" xmlns="http://www.w3.org/2000/svg">
<path d="M12.4843 9.55313C13.585 9.54912 14.4615 8.66499 14.4575 7.562C14.4535 6.45854 13.5751 5.58053 12.474 5.57959C11.3637 5.57841 10.4769 6.47269 10.4854 7.58605C10.4937 8.68503 11.3802 9.55714 12.4843 9.55313Z" fill="#F4364C"/>
<path d="M12.4736 0C6.10775 0 0.947266 5.16072 0.947266 11.5263C0.947266 17.8919 6.10775 23.0526 12.4736 23.0526C18.8394 23.0526 23.9999 17.8919 23.9999 11.5263C23.9999 5.16072 18.8394 0 12.4736 0ZM12.4901 3.50518C14.7352 3.51131 16.5372 5.34774 16.5257 7.61763C16.5143 9.83516 14.6829 11.6324 12.4415 11.6249C10.223 11.6173 8.40358 9.77809 8.41679 7.55608C8.42929 5.30977 10.2497 3.49905 12.4901 3.50518ZM17.0374 13.2201C16.541 13.7297 15.9434 14.0985 15.2798 14.3558C14.6524 14.599 13.965 14.7214 13.2844 14.803C13.3874 14.9148 13.4358 14.9697 13.4999 15.0339C14.4234 15.9623 15.3514 16.8861 16.2719 17.8172C16.5856 18.1346 16.6509 18.5279 16.4783 18.8966C16.2898 19.2998 15.867 19.5649 15.4521 19.5364C15.1894 19.5182 14.9845 19.3878 14.8027 19.2046C14.1055 18.5032 13.3952 17.8143 12.7127 17.0997C12.5134 16.8917 12.4182 16.9314 12.2425 17.112C11.5413 17.8341 10.8286 18.5447 10.112 19.2515C9.79004 19.5689 9.40705 19.6265 9.03349 19.4449C8.63659 19.2529 8.38424 18.8475 8.40358 18.4397C8.41726 18.1648 8.55263 17.9539 8.74177 17.7657C9.65609 16.8533 10.5676 15.938 11.4793 15.0235C11.5399 14.9629 11.596 14.8985 11.684 14.8042C10.4405 14.6742 9.31909 14.3681 8.35901 13.6174C8.23968 13.5241 8.11681 13.434 8.00833 13.3293C7.58784 12.9257 7.54562 12.4633 7.87791 11.9874C8.16256 11.5799 8.63989 11.4709 9.13631 11.7051C9.23253 11.7501 9.32404 11.8072 9.41177 11.8676C11.2008 13.097 13.6586 13.1307 15.4547 11.9225C15.6326 11.7867 15.8229 11.6749 16.0434 11.6185C16.4717 11.5082 16.8716 11.6659 17.1013 12.0409C17.3643 12.4694 17.3612 12.8873 17.0374 13.2201Z" fill="#F4364C"/>
</svg>
