<svg width="40" height="40" viewBox="0 0 40 40" fill="none" xmlns="http://www.w3.org/2000/svg">
<path d="M20 0C8.95433 0 0 8.95433 0 20C0 31.0457 8.95433 40 20 40C31.0456 40 40 31.0457 40 20C40 8.95433 31.0456 0 20 0ZM20 4.3457C28.6456 4.3457 35.6519 11.3565 35.6519 20C35.6519 28.6435 28.6456 35.6519 20 35.6519C11.3543 35.6519 4.34813 28.6435 4.34813 20C4.34817 11.3565 11.3543 4.3457 20 4.3457ZM27.6636 10.5029L16.0718 22.0972L12.312 18.3374L8.62303 22.0239L12.3828 25.7837L16.0962 29.4971L19.7827 25.8081L31.3769 14.2163L27.6636 10.5029Z" fill="#F4364C"/>
</svg>
