<svg width="21" height="21" viewBox="0 0 21 21" fill="none" xmlns="http://www.w3.org/2000/svg">
<path d="M20.99 16.5623C21.0345 16.9032 20.9306 17.1996 20.6788 17.4515L17.722 20.3859C17.5886 20.5341 17.4145 20.6602 17.1996 20.7639C16.9847 20.8676 16.7735 20.9343 16.5661 20.9639C16.5513 20.9639 16.5067 20.9678 16.4326 20.9752C16.3586 20.9825 16.2623 20.9863 16.1437 20.9863C15.862 20.9863 15.4062 20.9382 14.7764 20.8418C14.1465 20.7454 13.3758 20.5082 12.4644 20.1304C11.5528 19.7524 10.5191 19.1855 9.36309 18.4297C8.2071 17.6739 6.97694 16.6364 5.67271 15.3173C4.63525 14.2947 3.77564 13.3165 3.09388 12.3828C2.41213 11.4491 1.86375 10.5858 1.44877 9.79286C1.03375 8.99994 0.722515 8.28113 0.515024 7.63643C0.307532 6.99172 0.166734 6.43594 0.0926301 5.96909C0.018526 5.50223 -0.0111156 5.13541 0.00370521 4.86864C0.018526 4.60186 0.0259364 4.45366 0.0259364 4.42401C0.0555781 4.21652 0.122272 4.00533 0.226018 3.79042C0.329763 3.57552 0.45574 3.40138 0.603948 3.26799L3.5607 0.311237C3.76819 0.103746 4.00533 0 4.2721 0C4.46477 0 4.63521 0.0555781 4.78342 0.166734C4.93163 0.27789 5.05761 0.414983 5.16135 0.578012L7.54009 5.09095C7.67348 5.32808 7.71053 5.58745 7.65125 5.86904C7.59197 6.15064 7.46599 6.38777 7.27332 6.58044L6.18399 7.66977C6.15435 7.69942 6.12841 7.74758 6.10618 7.81428C6.08395 7.88097 6.07283 7.93655 6.07283 7.98101C6.13211 8.29225 6.2655 8.64795 6.47299 9.04811C6.65084 9.40381 6.92503 9.83732 7.29555 10.3486C7.66607 10.86 8.19221 11.449 8.87397 12.116C9.5409 12.7978 10.1337 13.3276 10.6525 13.7056C11.1711 14.0834 11.6047 14.3614 11.953 14.5392C12.3013 14.7171 12.5681 14.8245 12.7533 14.8615L13.0311 14.9171C13.0608 14.9171 13.1091 14.9059 13.1757 14.8837C13.2424 14.8615 13.2905 14.8356 13.3202 14.8059L14.5874 13.5165C14.8543 13.2794 15.1654 13.1608 15.5211 13.1608C15.7731 13.1608 15.9731 13.2052 16.1213 13.2942H16.1435L20.4341 15.8286C20.7454 16.0214 20.9307 16.2659 20.99 16.5623Z" fill="#F4364C"/>
</svg>
