<svg width="19" height="19" viewBox="0 0 19 19" fill="none" xmlns="http://www.w3.org/2000/svg">
<g clip-path="url(#clip0)">
<path d="M17.9611 13.2112C18.2249 13.2112 18.4641 13.3101 18.6785 13.5081C18.8929 13.706 19.0001 13.9534 19.0001 14.2502V17.9612C19.0001 18.2251 18.8929 18.4642 18.6785 18.6786C18.4641 18.893 18.2249 19.0002 17.9611 19.0002C14.6954 19.0002 11.6855 18.2003 8.93111 16.6005C6.17677 15.0007 3.99969 12.8236 2.39986 10.0693C0.800035 7.31491 0.00012207 4.30493 0.00012207 1.03931C0.00012207 0.775418 0.107327 0.536268 0.321737 0.321859C0.536146 0.107449 0.775296 0.000244141 1.03918 0.000244141H4.75012C5.047 0.000244141 5.29439 0.107449 5.49231 0.321859C5.69023 0.536268 5.78918 0.775418 5.78918 1.03931C5.78918 2.35875 5.9871 3.61222 6.38293 4.79972C6.51488 5.22854 6.43241 5.59139 6.13554 5.88827L3.81002 8.21379C5.36037 11.2815 7.68589 13.607 10.7866 15.1903L13.1121 12.8648C13.409 12.568 13.7718 12.4855 14.2006 12.6174C15.3881 13.0133 16.6416 13.2112 17.9611 13.2112ZM16.8725 9.50024C16.8725 7.45511 16.1551 5.71509 14.7202 4.28019C13.2853 2.8453 11.5453 2.12785 9.50012 2.12785V0.000244141C12.139 0.000244141 14.3821 0.923855 16.2293 2.77108C18.0765 4.6183 19.0001 6.86136 19.0001 9.50024H16.8725ZM12.6668 9.50024C12.6668 8.60962 12.3617 7.85919 11.7514 7.24894C11.1412 6.6387 10.3907 6.33358 9.50012 6.33358V4.20597C10.9515 4.20597 12.1967 4.7255 13.2358 5.76457C14.2749 6.80363 14.7944 8.04886 14.7944 9.50024H12.6668Z" fill="url(#paint0_linear)"/>
</g>
<defs>
<linearGradient id="paint0_linear" x1="15.5605" y1="2.45714" x2="2.78461" y2="16.052" gradientUnits="userSpaceOnUse">
<stop stop-color="#3B93FF"/>
<stop offset="1" stop-color="#0072FF"/>
</linearGradient>
<clipPath id="clip0">
<rect x="0.00012207" y="0.000244141" width="19" height="19" fill="white"/>
</clipPath>
</defs>
</svg>
