<svg width="14" height="14" viewBox="0 0 14 14" fill="none" xmlns="http://www.w3.org/2000/svg">
<path d="M10.6436 9.26092C10.1862 8.80936 9.61519 8.80936 9.16072 9.26092C8.81404 9.60468 8.46736 9.94845 8.12651 10.298C8.03329 10.3942 7.95463 10.4146 7.84101 10.3505C7.61669 10.2281 7.3778 10.1291 7.16222 9.99506C6.15714 9.36288 5.31521 8.55008 4.56941 7.63532C4.19943 7.18085 3.87023 6.69433 3.64008 6.14664C3.59347 6.03593 3.60221 5.9631 3.69252 5.87279C4.0392 5.53776 4.37713 5.194 4.71799 4.85023C5.19285 4.37246 5.19285 3.81311 4.71507 3.33242C4.44414 3.05857 4.17321 2.79055 3.90227 2.51671C3.6226 2.23703 3.34584 1.95444 3.06325 1.67768C2.60587 1.23195 2.03487 1.23195 1.5804 1.6806C1.23081 2.02436 0.895779 2.37687 0.540361 2.71481C0.211161 3.02653 0.045105 3.40816 0.0101458 3.85389C-0.0452063 4.5793 0.132503 5.26392 0.383044 5.93105C0.895779 7.31194 1.67654 8.53843 2.62335 9.66295C3.90227 11.1837 5.42882 12.3869 7.21466 13.255C8.01872 13.6454 8.85191 13.9455 9.75794 13.995C10.3814 14.0299 10.9232 13.8726 11.3573 13.3861C11.6545 13.054 11.9895 12.751 12.3041 12.4335C12.7703 11.9615 12.7732 11.3905 12.31 10.9244C11.7564 10.368 11.2 9.81444 10.6436 9.26092Z" fill="#FB7429"/>
<path d="M10.0872 6.93954L11.1622 6.75601C10.9932 5.76841 10.5271 4.87404 9.81916 4.1632C9.07045 3.41449 8.12364 2.94254 7.08069 2.79688L6.9292 3.8777C7.73617 3.99132 8.47032 4.35547 9.05006 4.93521C9.59775 5.48291 9.95609 6.17627 10.0872 6.93954Z" fill="#FB7429"/>
<path d="M11.7681 2.26652C10.527 1.02547 8.95678 0.241801 7.22339 0L7.0719 1.08082C8.56932 1.29058 9.9269 1.96937 10.999 3.03854C12.0157 4.05527 12.6829 5.34002 12.9247 6.75296L13.9996 6.56942C13.7171 4.93216 12.945 3.4464 11.7681 2.26652Z" fill="#FB7429"/>
</svg>
