<svg width="16" height="16" viewBox="0 0 14 14" fill="#fff" xmlns="http://www.w3.org/2000/svg">
<g opacity="0.3">
<path d="M13.9933 11.0469C14.023 11.2741 13.9537 11.4718 13.7858 11.6397L11.8147 13.596C11.7257 13.6948 11.6097 13.7788 11.4664 13.8479C11.3231 13.9171 11.1824 13.9616 11.0441 13.9813C11.0342 13.9813 11.0045 13.9839 10.9551 13.9888C10.9057 13.9937 10.8415 13.9962 10.7625 13.9962C10.5747 13.9962 10.2708 13.9641 9.8509 13.8999C9.43098 13.8356 8.91721 13.6775 8.30961 13.4256C7.70186 13.1737 7.01271 12.7957 6.24206 12.2918C5.4714 11.788 4.65129 11.0963 3.7818 10.2169C3.09016 9.53515 2.51709 8.88304 2.06259 8.26059C1.60808 7.63809 1.2425 7.06255 0.965847 6.53394C0.689168 6.00533 0.481676 5.52612 0.343349 5.09632C0.205021 4.66652 0.111156 4.296 0.0617534 3.98476C0.0123507 3.67352 -0.00741041 3.42898 0.00247014 3.25113C0.0123507 3.07328 0.0172909 2.97447 0.0172909 2.95471C0.037052 2.81638 0.0815145 2.67559 0.150678 2.53232C0.219842 2.38905 0.303827 2.27295 0.402632 2.18403L2.3738 0.212862C2.51213 0.0745349 2.67022 0.00537109 2.84807 0.00537109C2.97651 0.00537109 3.09014 0.0424231 3.18894 0.116527C3.28775 0.190631 3.37173 0.282026 3.4409 0.390712L5.02673 3.39934C5.11565 3.55742 5.14035 3.73033 5.10083 3.91806C5.06131 4.10579 4.97732 4.26388 4.84888 4.39233L4.12266 5.11855C4.10289 5.13831 4.0856 5.17042 4.07078 5.21489C4.05596 5.25935 4.04855 5.2964 4.04855 5.32604C4.08807 5.53353 4.177 5.77067 4.31533 6.03744C4.43389 6.27457 4.61668 6.56358 4.8637 6.90446C5.11071 7.24534 5.46147 7.63806 5.91597 8.08269C6.3606 8.53724 6.75582 8.89042 7.10164 9.14242C7.44739 9.39428 7.73649 9.57961 7.96868 9.69818C8.20087 9.81675 8.37872 9.88838 8.50221 9.91301L8.68742 9.95009C8.70718 9.95009 8.73936 9.94265 8.78378 9.92785C8.82824 9.91301 8.86035 9.89574 8.88014 9.87596L9.7249 9.01635C9.90285 8.85829 10.1102 8.77924 10.3474 8.77924C10.5154 8.77924 10.6487 8.80886 10.7475 8.86817H10.7623L13.6227 10.5577C13.8303 10.6863 13.9538 10.8493 13.9933 11.0469Z" fill="#fff"/>
</g>
</svg> 
