<svg width="11" height="15" viewBox="0 0 11 15" fill="none" xmlns="http://www.w3.org/2000/svg">
<path d="M9.21509 1.53871C8.22288 0.546506 6.9036 0 5.50049 0C4.09711 0 2.7781 0.546506 1.7859 1.53871C-0.0503032 3.37464 -0.278493 6.82899 1.29172 8.92187L5.50049 15L9.70297 8.93036C11.2795 6.82899 11.0513 3.37464 9.21509 1.53871ZM5.54898 7.12238C4.49186 7.12238 3.63142 6.26194 3.63142 5.20481C3.63142 4.14769 4.49186 3.28725 5.54898 3.28725C6.6061 3.28725 7.46654 4.14769 7.46654 5.20481C7.46654 6.26194 6.6061 7.12238 5.54898 7.12238Z" fill="url(#paint06_linear)"/>
<defs>
<linearGradient id="paint06_linear" x1="8.85094" y1="1.93966" x2="-0.833205" y2="9.15708" gradientUnits="userSpaceOnUse">
<stop stop-color="#3B93FF"/>
<stop offset="1" stop-color="#0072FF"/>
</linearGradient>
</defs>
</svg>
