<svg width="15" height="15" viewBox="0 0 15 15" fill="none" xmlns="http://www.w3.org/2000/svg">
<path fill-rule="evenodd" clip-rule="evenodd" d="M7.37842 0.554199C6.62465 0.554199 6.0136 1.16525 6.0136 1.91902V6.01365H1.91914C1.16537 6.01365 0.554321 6.6247 0.554321 7.37847C0.554321 8.13224 1.16537 8.74329 1.91914 8.74329H6.0136V12.8376C6.0136 13.5913 6.62465 14.2024 7.37842 14.2024C8.13219 14.2024 8.74324 13.5913 8.74324 12.8376V8.74329H12.8377C13.5914 8.74329 14.2025 8.13224 14.2025 7.37847C14.2025 6.6247 13.5914 6.01365 12.8377 6.01365H8.74324V1.91902C8.74324 1.16525 8.13219 0.554199 7.37842 0.554199Z" fill="url(#paint01_linear)"/>
<defs>
<linearGradient id="paint01_linear" x1="11.7317" y1="2.31905" x2="2.55449" y2="12.0846" gradientUnits="userSpaceOnUse">
<stop stop-color="#3B93FF"/>
<stop offset="1" stop-color="#0072FF"/>
</linearGradient>
</defs>
</svg>
