<svg width="28" height="32" viewBox="0 0 28 32" fill="none" xmlns="http://www.w3.org/2000/svg">
<path d="M17.4533 20.5714C23.66 20.5714 28 16.3244 28 10.2194C28 4.11429 23.66 0 17.4533 0H5.54167C5.05845 0 4.66667 0.383786 4.66667 0.857143V15.6166H0.875C0.391781 15.6166 0 16.0004 0 16.4737V19.7143C0 20.1876 0.391781 20.5714 0.875 20.5714H4.66667V22.8571H0.875C0.391781 22.8571 0 23.2409 0 23.7143V26.5714C0 27.0448 0.391781 27.4286 0.875 27.4286H4.66667V31.1429C4.66667 31.6162 5.05845 32 5.54167 32H9.81167C10.2949 32 10.6867 31.6162 10.6867 31.1429V27.4286H22.4583C22.9416 27.4286 23.3333 27.0448 23.3333 26.5714V23.7143C23.3333 23.2409 22.9416 22.8571 22.4583 22.8571H10.6867V20.5714H17.4533ZM10.6867 4.91057H16.4267C19.8333 4.91057 21.8867 6.98986 21.8867 10.2194C21.8867 13.4931 19.8333 15.6166 16.3333 15.6166H10.6867V4.91057Z" fill="#F4364C"/>
</svg>
