<svg width="36" height="35" viewBox="0 0 36 35" fill="none" xmlns="http://www.w3.org/2000/svg">
<path d="M35.2189 21.9828C34.7529 21.2722 34.1153 20.7181 33.3824 20.3486C33.633 17.0292 32.6277 14.2548 31.0968 14.1205L31.0408 14.1156C30.9687 11.3093 30.0659 8.52239 28.3833 6.13664C25.6731 2.294 21.3107 0 16.7138 0C12.1168 0 7.75443 2.294 5.04403 6.13676C3.36038 8.52445 2.45771 11.313 2.38614 14.1212L2.3307 14.1259C0.774057 14.2626 -0.246122 17.1245 0.0516434 20.5175C0.350034 23.9116 1.85405 26.5516 3.40988 26.415H3.41051L8.48946 25.9692C8.91786 25.9315 9.31345 25.7253 9.58959 25.396C9.86641 25.066 10 24.6406 9.96242 24.2122L9.16713 15.1534C9.08843 14.2614 8.30214 13.6015 7.4101 13.6803L6.06659 13.7985C6.18772 11.8558 6.84332 9.94546 8.03963 8.24925C10.0944 5.33597 13.2558 3.66551 16.7138 3.66551C20.1716 3.66551 23.3331 5.33609 25.3879 8.24925C26.5835 9.94371 27.238 11.8523 27.3603 13.7925L26.0174 13.6749C25.1254 13.5961 24.3391 14.2559 24.2604 15.148L23.4651 24.2069C23.4276 24.6352 23.5612 25.0607 23.838 25.3906C24.1142 25.72 24.5099 25.9264 24.9383 25.9639L30.0172 26.4097H30.0178C31.1624 26.51 32.2743 25.1018 32.9038 23.0031C32.9998 23.1037 33.0971 23.2034 33.1751 23.3229C33.6048 23.9773 33.6751 24.7976 33.3632 25.516L31.7503 29.2261C31.2605 30.3531 30.1502 31.081 28.9214 31.081H26.7507C26.5735 30.5106 26.0616 30.0882 25.4329 30.0882H21.4105C20.6374 30.0882 20.0105 30.7151 20.0105 31.4883V33.1171C20.0105 33.8903 20.6374 34.5173 21.4105 34.5173H25.4329C26.0616 34.5173 26.5735 34.0949 26.7507 33.5246H28.9214C31.1238 33.5246 33.1143 32.2191 33.9913 30.1996L35.6045 26.4893C36.2451 25.013 36.1012 23.3281 35.2189 21.9828Z" fill="#F4364C"/>
</svg>
