<svg width="29" height="28" viewBox="0 0 29 28" fill="none" xmlns="http://www.w3.org/2000/svg">
<path d="M28.3708 17.7084C27.9954 17.1359 27.4817 16.6896 26.8914 16.3919C27.0932 13.7179 26.2835 11.483 25.0502 11.3748L25.0051 11.3709C24.947 9.11031 24.2198 6.86526 22.8643 4.9434C20.6811 1.84794 17.167 0 13.4639 0C9.76079 0 6.24662 1.84794 4.06325 4.9435C2.70697 6.86692 1.97982 9.11328 1.92217 11.3754L1.87751 11.3792C0.623546 11.4893 -0.198265 13.7948 0.0416016 16.528C0.281972 19.2622 1.49354 21.3888 2.74685 21.2788H2.74735L6.83874 20.9197C7.18383 20.8893 7.5025 20.7232 7.72494 20.4579C7.94794 20.192 8.05559 19.8493 8.02528 19.5043L7.38463 12.2069C7.32124 11.4884 6.68784 10.9567 5.96924 11.0202L4.88697 11.1154C4.98455 9.55052 5.51267 8.01162 6.47637 6.64523C8.13162 4.29842 10.6783 2.95277 13.4639 2.95277C16.2493 2.95277 18.7961 4.29852 20.4514 6.64523C21.4145 8.01021 21.9417 9.54765 22.0402 11.1106L20.9585 11.0159C20.2399 10.9524 19.6065 11.484 19.5431 12.2025L18.9024 19.5C18.8722 19.8451 18.9799 20.1878 19.2029 20.4535C19.4254 20.7189 19.7441 20.8851 20.0892 20.9154L24.1805 21.2745H24.181C25.103 21.3552 25.9988 20.2209 26.5058 18.5303C26.5831 18.6113 26.6616 18.6916 26.7244 18.7879C27.0705 19.315 27.1272 19.9759 26.8759 20.5545L25.5766 23.5433C25.1821 24.4511 24.2877 25.0374 23.2978 25.0374H21.5492C21.4065 24.578 20.9941 24.2377 20.4876 24.2377H17.2474C16.6245 24.2377 16.1196 24.7427 16.1196 25.3656V26.6777C16.1196 27.3005 16.6245 27.8056 17.2474 27.8056H20.4876C20.9941 27.8056 21.4065 27.4654 21.5492 27.0059H23.2978C25.072 27.0059 26.6754 25.9543 27.3818 24.3275L28.6814 21.3386C29.1974 20.1494 29.0816 18.7921 28.3708 17.7084Z" fill="#F4364C"/>
</svg>
