<svg width="47" height="39" viewBox="0 0 47 39" fill="none" xmlns="http://www.w3.org/2000/svg">
<path d="M26.8571 0C32.4524 0 37.2083 1.89583 41.125 5.6875C45.0417 9.47917 47 14.0833 47 19.5C47 24.9167 45.0417 29.5208 41.125 33.3125C37.2083 37.1042 32.4524 39 26.8571 39C21.3318 39 16.5759 37.1042 12.5893 33.3125L15.8415 30.1641C18.849 33.1432 22.5208 34.6328 26.8571 34.6328C31.1935 34.6328 34.8828 33.1602 37.9252 30.2148C40.9676 27.2695 42.4888 23.6979 42.4888 19.5C42.4888 15.3021 40.9676 11.7305 37.9252 8.78516C34.8828 5.83984 31.1935 4.36719 26.8571 4.36719C22.5208 4.36719 18.8315 5.83984 15.7891 8.78516C12.7467 11.7305 11.2254 15.3021 11.2254 19.5H17.9397L8.8125 28.2344L8.70759 27.9297L0 19.5H6.71429C6.71429 14.0833 8.67262 9.47917 12.5893 5.6875C16.506 1.89583 21.2619 0 26.8571 0ZM24.654 10.8672H28.0112V20.0078L35.7746 24.5781L34.2009 27.2188L24.654 21.6328V10.8672Z" fill="#F4364C"/>
</svg>
