<svg width="25" height="21" viewBox="0 0 25 21" fill="none" xmlns="http://www.w3.org/2000/svg">
<path d="M14.2857 0C17.2619 0 19.7917 1.02083 21.875 3.0625C23.9583 5.10417 25 7.58333 25 10.5C25 13.4167 23.9583 15.8958 21.875 17.9375C19.7917 19.9792 17.2619 21 14.2857 21C11.3467 21 8.81696 19.9792 6.69643 17.9375L8.42634 16.2422C10.026 17.8464 11.9792 18.6484 14.2857 18.6484C16.5923 18.6484 18.5547 17.8555 20.173 16.2695C21.7913 14.6836 22.6004 12.7604 22.6004 10.5C22.6004 8.23958 21.7913 6.31641 20.173 4.73047C18.5547 3.14453 16.5923 2.35156 14.2857 2.35156C11.9792 2.35156 10.0167 3.14453 8.39844 4.73047C6.78013 6.31641 5.97098 8.23958 5.97098 10.5H9.54241L4.6875 15.2031L4.6317 15.0391L0 10.5H3.57143C3.57143 7.58333 4.6131 5.10417 6.69643 3.0625C8.77976 1.02083 11.3095 0 14.2857 0ZM13.1138 5.85156H14.8996V10.7734L19.029 13.2344L18.192 14.6562L13.1138 11.6484V5.85156Z" fill="#F4364C"/>
</svg>
