<svg width="25" height="24" viewBox="0 0 25 24" fill="none" xmlns="http://www.w3.org/2000/svg">
<path d="M12.4912 0C6.13558 0 0.964844 5.17073 0.964844 11.5263C0.964844 17.8814 6.13558 23.0526 12.4912 23.0526C18.8463 23.0526 24.0175 17.8814 24.0175 11.5263C24.0175 5.17073 18.8472 0 12.4912 0ZM17.6331 8.88825C17.6382 9.00247 17.641 9.11761 17.641 9.23275C17.641 12.7386 14.9732 16.7797 10.0922 16.7797C8.59396 16.7797 7.19925 16.3419 6.02554 15.5888C6.23307 15.6134 6.44432 15.6259 6.65836 15.6259C7.90171 15.6259 9.04524 15.2016 9.95338 14.4903C8.79267 14.4689 7.81257 13.702 7.47503 12.6476C7.63661 12.6782 7.80328 12.6954 7.97368 12.6954C8.21557 12.6954 8.45049 12.6638 8.67289 12.603C7.45925 12.3597 6.54507 11.2877 6.54507 10.0016C6.54507 9.99046 6.54507 9.97886 6.54554 9.96818C6.90304 10.1664 7.31207 10.2862 7.74664 10.2997C7.03536 9.82471 6.5669 9.01222 6.5669 8.09201C6.5669 7.60544 6.69736 7.14951 6.92579 6.75765C8.23367 8.36315 10.1892 9.41893 12.3937 9.53036C12.3482 9.33582 12.3254 9.13386 12.3254 8.9254C12.3254 7.46058 13.513 6.27248 14.9779 6.27248C15.7411 6.27248 16.4297 6.59469 16.9144 7.11005C17.5194 6.99119 18.0858 6.77112 18.5997 6.46608C18.4001 7.0859 17.9809 7.60544 17.4316 7.93415C17.9688 7.87008 18.4814 7.72801 18.9554 7.51676C18.6016 8.0479 18.1517 8.51543 17.6331 8.88825Z" fill="#F4364C"/>
</svg>
