<svg width="11" height="11" viewBox="0 0 11 11" fill="none" xmlns="http://www.w3.org/2000/svg">
<g opacity="0.5">
<path d="M5.5 0.956543C4.75 0.956543 4.16406 1.22058 3.74219 1.74866C3.32031 2.27674 3.10938 2.95179 3.10938 3.7738C3.10417 4.79508 3.44792 5.60464 4.14062 6.20247C4.22917 6.28218 4.26042 6.38431 4.23438 6.50885L4.05469 6.86755C3.9974 6.98711 3.91276 7.08052 3.80078 7.14778C3.6888 7.21503 3.45312 7.31094 3.09375 7.43548C3.07812 7.44046 2.7487 7.54259 2.10547 7.74187C1.46224 7.94114 1.11979 8.05075 1.07812 8.07067C0.640625 8.24504 0.354167 8.42688 0.21875 8.61619C0.0729167 8.93005 0 9.72466 0 11H11C11 9.72466 10.9271 8.93005 10.7812 8.61619C10.6458 8.42688 10.3594 8.24504 9.92188 8.07067C9.88021 8.05075 9.53776 7.94114 8.89453 7.74187C8.2513 7.54259 7.92188 7.44046 7.90625 7.43548C7.54688 7.31094 7.3112 7.21503 7.19922 7.14778C7.08724 7.08052 7.0026 6.98711 6.94531 6.86755L6.76562 6.50885C6.73958 6.38431 6.77083 6.28218 6.85938 6.20247C7.55208 5.60464 7.89583 4.79508 7.89062 3.7738C7.89062 2.95179 7.67969 2.27674 7.25781 1.74866C6.83594 1.22058 6.25 0.956543 5.5 0.956543Z" fill="#4E4E4E"/>
</g>
</svg>
