<svg width="19" height="19" viewBox="0 0 19 19" fill="none" xmlns="http://www.w3.org/2000/svg">
<path d="M17.2177 4.75727H2.82607C2.65418 4.79052 2.47706 4.78536 2.3074 4.74217C2.13774 4.69898 1.97973 4.61881 1.84469 4.50742C1.70965 4.39602 1.60093 4.25616 1.5263 4.09783C1.45168 3.93951 1.413 3.76665 1.41304 3.59164V3.56909L16.624 2.97678V1.56425C16.6488 1.3535 16.6253 1.13988 16.5554 0.939504C16.4855 0.739132 16.371 0.557254 16.2205 0.407604C16.07 0.257955 15.8875 0.144446 15.6866 0.0756503C15.4858 0.00685455 15.272 -0.0154298 15.0613 0.01048L1.55553 2.20523C1.09971 2.37343 0.706329 2.67709 0.42825 3.07538C0.150172 3.47367 0.000726277 3.94751 0 4.43322L0 17.2195C0 17.6917 0.187655 18.1446 0.521683 18.4785C0.855712 18.8124 1.30875 19 1.78114 19H17.2177C17.6901 19 18.1431 18.8124 18.4771 18.4785C18.8112 18.1446 18.9988 17.6917 18.9988 17.2195V6.5247L19 6.47603C19 6.01956 18.8186 5.58178 18.4957 5.259C18.1728 4.93623 17.7349 4.75489 17.2782 4.75489L17.2153 4.75608L17.2177 4.75727ZM15.4365 13.0662C14.964 13.0661 14.5109 12.8783 14.1768 12.5441C13.8428 12.21 13.6552 11.7569 13.6554 11.2845C13.6556 10.8122 13.8434 10.3592 14.1777 10.0253C14.5119 9.69139 14.9652 9.5039 15.4377 9.50405C15.6717 9.50413 15.9034 9.55028 16.1195 9.63986C16.3357 9.72944 16.532 9.8607 16.6974 10.0261C16.8628 10.1916 16.994 10.388 17.0835 10.6041C17.1729 10.8202 17.2189 11.0518 17.2189 11.2857C17.2188 11.5196 17.1726 11.7512 17.083 11.9673C16.9934 12.1833 16.8621 12.3796 16.6966 12.545C16.5311 12.7103 16.3346 12.8414 16.1184 12.9309C15.9022 13.0203 15.6705 13.0663 15.4365 13.0662Z" fill="#F4364C"/>
</svg>
