<svg width="30" height="30" viewBox="0 0 30 30" fill="none" xmlns="http://www.w3.org/2000/svg">
<path d="M27.1858 7.51147H4.46222C4.19082 7.56398 3.91115 7.55584 3.64326 7.48764C3.37537 7.41943 3.12589 7.29286 2.91267 7.11697C2.69945 6.94109 2.52778 6.72025 2.40995 6.47026C2.29212 6.22028 2.23105 5.94735 2.23111 5.67101V5.6354L26.2484 4.70017V2.46988C26.2875 2.13711 26.2505 1.7998 26.1402 1.48343C26.0298 1.16705 25.849 0.879874 25.6113 0.643586C25.3737 0.407297 25.0855 0.228073 24.7684 0.119448C24.4513 0.010823 24.1137 -0.0243629 23.781 0.0165474L2.4561 3.48194C1.73639 3.74753 1.11526 4.22698 0.676185 4.85586C0.237114 5.48475 0.00114675 6.23292 0 6.99982L0 27.1887C0 27.9343 0.296298 28.6494 0.823711 29.1766C1.35112 29.7038 2.06645 30 2.81232 30H27.1858C27.9317 30 28.647 29.7038 29.1744 29.1766C29.7018 28.6494 29.9981 27.9343 29.9981 27.1887V10.3022L30 10.2253C30 9.50457 29.7136 8.81334 29.2037 8.30369C28.6939 7.79404 28.0024 7.50772 27.2814 7.50772L27.1821 7.5096L27.1858 7.51147ZM24.3735 20.6309C23.6274 20.6306 22.9119 20.3341 22.3845 19.8065C21.8571 19.279 21.5609 18.5636 21.5612 17.8177C21.5614 17.0718 21.858 16.3566 22.3858 15.8294C22.9136 15.3022 23.6292 15.0062 24.3754 15.0064C24.7448 15.0065 25.1106 15.0794 25.4519 15.2208C25.7931 15.3623 26.1032 15.5695 26.3644 15.8307C26.6255 16.092 26.8326 16.4021 26.9739 16.7433C27.1152 17.0845 27.1878 17.4503 27.1877 17.8196C27.1876 18.1889 27.1147 18.5546 26.9732 18.8957C26.8317 19.2368 26.6244 19.5468 26.363 19.8079C26.1017 20.0689 25.7915 20.2759 25.4501 20.4172C25.1088 20.5584 24.7429 20.631 24.3735 20.6309Z" fill="#F4364C"/>
</svg>
