<?xml version="1.0" encoding="UTF-8"?>
<svg viewBox="-9.847999572753906 194.3979949951172 362.3620300292969 88.18446350097656" width="362.3620300292969" height="88.18446350097656" xmlns="http://www.w3.org/2000/svg">
  <g transform="matrix(0.42708301544189453, 0, 0, 0.42708301544189453, -9.37777042388916, 112.61922454833983)" style="">
    <path fill-rule="evenodd" clip-rule="evenodd" d="M337.179,253.463l-17.561,0.005c-35.179,0.017-65.325,88.485-23.728,88.47&#xA;&#9;&#9;l26.725-0.005c15.414,0,26.858,5.589,21.791,20.66l-6.981,20.758l-28.346,0.005l-23.057-0.231&#xA;&#9;&#9;c-29.496-0.293-48.53-14.731-55.383-36.655c-7.417-23.724,3.054-73.206,33.444-104.903c17.633-18.389,42.058-29.498,73.374-29.5&#xA;&#9;&#9;l57.858-0.01l-9.045,25.925c-5.843,16.752-17.782,15.502-24.594,15.5L337.179,253.463z"/>
    <path fill-rule="evenodd" clip-rule="evenodd" d="M656.647,277.015c-26.763-0.007-66.36-0.012-93.121-0.012&#xA;&#9;&#9;c-15.412,0-22.405,4.249-25.159,13.138l-8.766,28.277c26.763,0.007,66.36,0.012,93.121,0.012c15.414,0,22.405-4.249,25.159-13.136&#xA;&#9;&#9;L656.647,277.015z"/>
    <path fill-rule="evenodd" clip-rule="evenodd" d="M633.973,341.943c-26.763-0.004-66.36-0.009-93.121-0.009&#xA;&#9;&#9;c-15.414,0-22.405,4.251-25.159,13.134l-8.767,28.284c26.763,0.002,66.36,0.012,93.121,0.012c15.412,0,22.405-4.253,25.159-13.141&#xA;&#9;&#9;L633.973,341.943L633.973,341.943z M678.261,212.083c-26.763-0.003-66.36-0.012-93.121-0.012c-15.414,0-22.405,4.249-25.159,13.139&#xA;&#9;&#9;l-8.767,28.282c26.763,0.005,66.36,0.01,93.121,0.01c15.412,0,22.405-4.251,25.159-13.137L678.261,212.083z"/>
    <path fill-rule="evenodd" clip-rule="evenodd" d="M444.116,253.316l23.184,0.009c19.753,0.005,15.245,24.676,5.248,48.721&#xA;&#9;&#9;c-8.809,21.194-24.421,39.895-43.046,39.893l-38.65-0.005c-15.414,0-22.521,4.251-25.521,13.134l-9.542,28.284l28.341,0.005&#xA;&#9;&#9;l27.703-0.231c24.568-0.202,44.681-1.978,68.202-23.117c24.856-22.331,53.838-80.344,48.873-113.898&#xA;&#9;&#9;c-3.889-26.294-18.018-34.042-52.229-34.044l-62.342-0.01L378.037,318.3l23.064,0.029c13.727,0.017,20.615,0.188,27.917-19.461&#xA;&#9;&#9;L444.116,253.316z"/>
    <path fill-rule="evenodd" clip-rule="evenodd" d="M641.061,383.363h43.958l18.887-53.931l19.634-16.531l15.469,48.773&#xA;&#9;&#9;c4.784,15.074,9.707,21.689,20.448,21.689h33.654l-34.718-95.704l83.495-75.746h-53.923l-50.684,53.931&#xA;&#9;&#9;c-5.903,6.279-11.875,12.458-17.866,19.839h-0.509l25.306-73.77h-43.958L641.061,383.363z"/>
    <radialGradient id="SVGID_1_" cx="74.809" cy="279.0529" r="148.8634" gradientUnits="userSpaceOnUse">
      <stop offset="0" style="stop-color:#C3D62F"/>
      <stop offset="0.31" style="stop-color:#C0D52F"/>
      <stop offset="0.92" style="stop-color:#378347"/>
      <stop offset="1" style="stop-color:#378347"/>
    </radialGradient>
    <path fill-rule="evenodd" clip-rule="evenodd" fill="url(#SVGID_1_)" d="M70.201,207.175&#xA;&#9;&#9;c49.825-12.777,100.882,17.442,113.657,67.267c12.777,49.823-17.442,100.886-67.264,113.658&#xA;&#9;&#9;c-49.83,12.779-100.888-17.44-113.662-67.265C-9.848,271.013,20.376,219.952,70.201,207.175L70.201,207.175z"/>
    <path fill-rule="evenodd" clip-rule="evenodd" fill="#FFFFFF" d="M51.059,265.46c12.358,2.778,24.932,4.482,38.554,4.925&#xA;&#9;&#9;c22.722,0.743,47.511,0.1,77.199,0l10.392-0.034c2.466-0.009,3.17,2.79,0.45,3.563l-9.157,2.609&#xA;&#9;&#9;c-55.694,16.799-98.126,37.5-128.864,87.951c-1.223,2.007-3.244,0.923-2.909-1.476c3.27-23.326,6.653-42.663,17.297-63.797&#xA;&#9;&#9;c-6.181-8.652-4.482-18.211-10.787-32.3c-0.714-1.592-1.261-2.863-1.628-3.858c-0.909-2.464,0.507-3.399,2.413-2.556&#xA;&#9;&#9;C48.688,262.551,45.273,264.16,51.059,265.46z"/>
    <path fill-rule="evenodd" clip-rule="evenodd" fill="#D8D8D8" d="M51.059,265.46c12.358,2.778,24.932,4.487,38.554,4.925&#xA;&#9;&#9;c20.229,0.659,42.096,0.224,67.607,0.045c-49.958,16.057-90.119,38.945-119.151,83.384c2.968-19.363,6.736-36.313,15.952-54.612&#xA;&#9;&#9;c-1.431-2.004-2.921-4.087-4.451-6.272c0.367-0.766,0.738-1.53,1.121-2.292c-5.719-8.005-12.425-17.188-18.389-29.674&#xA;&#9;&#9;c0.131-1.223,1.269-1.576,2.68-0.954C39.651,262.077,45.275,264.16,51.059,265.46z"/>
    <path fill-rule="evenodd" clip-rule="evenodd" fill="#FFFFFF" d="M42.021,249.048c12.358,2.78,24.933,4.487,38.557,4.927&#xA;&#9;&#9;c22.717,0.74,47.509,0.098,77.197-0.003l10.39-0.033c2.468-0.01,3.173,2.792,0.452,3.563l-9.157,2.606&#xA;&#9;&#9;c-55.694,16.8-99.79,40.833-130.53,91.284c-1.223,2.009-3.32,1.628-2.909-0.759c3.985-23.093,8.317-46.709,18.963-67.843&#xA;&#9;&#9;c-6.181-8.652-13.522-18.685-19.825-32.776c-0.714-1.595-1.266-2.716-1.628-3.706c-0.907-2.468,0.821-3.661,2.909-2.556&#xA;&#9;&#9;C28.528,244.852,36.235,247.748,42.021,249.048z"/>
  </g>
</svg>