<svg width="139" height="53" viewBox="0 0 139 53" fill="none" xmlns="http://www.w3.org/2000/svg">
<path d="M22.7354 31.9517L28.3756 0L34.7718 39.3073L40.3248 18.9559L44.2497 31.9808H50.8203V34.83H42.1273L40.4702 29.3351L34.0449 52.7973L28.2593 17.0952L25.1194 34.83H14.9728V31.9517H22.7354Z" fill="#E31E25"/>
<path d="M97.832 17.0952L92.0173 52.7973L85.6212 29.3351L83.964 34.83H77.248V31.9808H81.8416L85.7666 18.9559L91.3196 39.3073L97.7157 0L103.356 31.9517H107.891V34.83H100.972L97.832 17.0952Z" fill="#E31E25"/>
<path d="M0 18.9268H2.87827V34.8299H0V18.9268Z" fill="#2A2925"/>
<path d="M9.12904 31.9807H20.5549V34.8299H4.65173V32.1552L16.1648 21.776H4.65173V18.9268H20.5549V21.6015L9.12904 31.9807Z" fill="#2A2925"/>
<path d="M49.2794 25.4392H60.1528V28.3175H49.2794V31.9807H62.3334V34.8299H46.4011V18.9268H62.3334V21.776H49.2794V25.4392Z" fill="#2A2925"/>
<path d="M72.9161 30.498H66.2583V34.859H63.38V18.9268H74.6023C75.2129 18.9268 75.8234 19.0721 76.3758 19.3047C76.9282 19.5373 77.4515 19.8862 77.8876 20.2932C78.3237 20.7293 78.6726 21.2236 78.9052 21.776C79.1669 22.3574 79.2832 22.968 79.2832 23.6076V25.7881C79.2832 26.2823 79.1959 26.7766 79.0506 27.2418C78.9052 27.7069 78.6726 28.143 78.3819 28.521C78.0912 28.928 77.7423 29.2769 77.3643 29.5676C77.1027 29.7711 76.841 29.9165 76.5503 30.0619L81.3183 34.859H79.3122H77.2771L72.9161 30.498ZM66.2292 21.776V27.6197H74.5733C75.0966 27.6197 75.5036 27.4453 75.8816 27.0964C76.2305 26.7475 76.4049 26.3114 76.4049 25.7881V23.6076C76.4049 23.1133 76.2305 22.6772 75.8816 22.2993C75.5327 21.9504 75.0966 21.776 74.5733 21.776H66.2292Z" fill="#2A2925"/>
<path d="M118.91 30.4978H108.735V34.8588H105.856V23.6074C105.856 22.9968 105.973 22.3863 106.205 21.8048C106.438 21.2524 106.787 20.7582 107.194 20.3221C107.63 19.886 108.124 19.5371 108.676 19.3045C109.258 19.0428 109.898 18.8975 110.537 18.8975H117.05C117.689 18.8975 118.271 19.0138 118.852 19.2754C119.405 19.508 119.899 19.8569 120.335 20.2639C120.771 20.7 121.091 21.1943 121.352 21.7467C121.614 22.3281 121.759 22.9387 121.759 23.5783V34.8006H118.91V30.4978ZM108.735 27.6195H118.91V23.6074C118.91 23.1131 118.736 22.677 118.387 22.299C118.038 21.9502 117.602 21.7757 117.079 21.7757H110.566C110.043 21.7757 109.636 21.9502 109.258 22.299C108.909 22.6479 108.735 23.084 108.735 23.6074V27.6195Z" fill="#2A2925"/>
<path d="M136.093 28.3172H129.58V25.439H138.971V30.1489C138.971 30.7594 138.855 31.37 138.622 31.9514C138.39 32.5038 138.041 32.9981 137.634 33.4342C137.198 33.8703 136.703 34.2192 136.151 34.4517C135.569 34.7134 134.959 34.8588 134.319 34.8588H127.778C127.138 34.8588 126.557 34.7425 125.975 34.4808C125.423 34.2482 124.9 33.8993 124.463 33.4923C124.027 33.0853 123.678 32.562 123.446 32.0096C123.184 31.4281 123.068 30.7885 123.068 30.1779V23.6074C123.068 22.9968 123.184 22.3863 123.446 21.8048C123.678 21.2524 124.027 20.7582 124.434 20.3221C124.87 19.886 125.365 19.5371 125.917 19.3045C126.499 19.0428 127.109 18.8975 127.749 18.8975H134.29C134.901 18.8975 135.511 19.0138 136.093 19.2754C136.645 19.508 137.139 19.8569 137.576 20.2639C138.012 20.7 138.331 21.1943 138.593 21.7467C138.855 22.3281 139 22.9387 139 23.5783V23.9272H136.122V23.5783C136.122 23.084 135.947 22.6479 135.599 22.27C135.25 21.9211 134.814 21.7467 134.29 21.7467H127.749C127.225 21.7467 126.818 21.9211 126.44 22.27C126.092 22.6189 125.917 23.055 125.917 23.5783V30.1198C125.917 30.6431 126.092 31.0501 126.44 31.4281C126.789 31.777 127.225 31.9514 127.749 31.9514H134.29C134.784 31.9514 135.221 31.777 135.599 31.4281C135.947 31.0792 136.122 30.6431 136.122 30.1198V28.3172H136.093Z" fill="#2A2925"/>
</svg>
